<?xml version="1.0" encoding="UTF-8"?>
<svg xmlns="http://www.w3.org/2000/svg" xmlns:xlink="http://www.w3.org/1999/xlink" width="257.838pt" height="341.305pt" viewBox="0 0 257.838 341.305">
<defs>
<g>
<g id="glyph-0-0">
<path d="M 0.21875 -5.5 L 0.875 -5.5 L 1.125 -6.9375 L 2.828125 -6.9375 C 2.859375 -5.96875 2.859375 -4.984375 2.859375 -4.015625 L 2.859375 -3.46875 C 2.859375 -2.5 2.859375 -1.53125 2.828125 -0.578125 L 1.6875 -0.453125 L 1.6875 0 L 5.0625 0 L 5.0625 -0.453125 L 3.921875 -0.578125 C 3.90625 -1.546875 3.90625 -2.5 3.90625 -3.46875 L 3.90625 -4.015625 C 3.90625 -5 3.90625 -5.984375 3.921875 -6.9375 L 5.640625 -6.9375 L 5.890625 -5.5 L 6.53125 -5.5 L 6.4375 -7.5 L 0.3125 -7.5 Z M 0.21875 -5.5 "/>
</g>
<g id="glyph-0-1">
<path d="M 0.703125 0 L 4.390625 0 L 4.390625 -0.40625 L 3.046875 -0.65625 C 3.03125 -1.21875 3.015625 -1.796875 3.015625 -2.359375 L 3.015625 -5.625 L 3.0625 -7.234375 L 2.90625 -7.34375 L 0.703125 -6.75 L 0.703125 -6.296875 L 2.0625 -6.40625 L 2.0625 -2.359375 C 2.0625 -1.796875 2.0625 -1.21875 2.046875 -0.65625 L 0.703125 -0.40625 Z M 0.703125 0 "/>
</g>
<g id="glyph-0-2">
<path d="M 0.625 0 L 5.21875 0 L 5.21875 -0.921875 L 1.484375 -0.921875 C 1.9375 -1.34375 2.390625 -1.765625 2.6875 -2.0625 C 4.40625 -3.71875 4.90625 -4.5 4.90625 -5.484375 C 4.90625 -6.59375 4.28125 -7.390625 2.828125 -7.390625 C 1.703125 -7.390625 0.6875 -6.828125 0.578125 -5.65625 C 0.6875 -5.421875 0.890625 -5.28125 1.140625 -5.28125 C 1.453125 -5.28125 1.640625 -5.5 1.796875 -6.046875 L 2 -6.828125 C 2.21875 -6.875 2.40625 -6.875 2.546875 -6.875 C 3.375 -6.875 3.890625 -6.296875 3.890625 -5.375 C 3.890625 -4.515625 3.390625 -3.578125 2.265625 -2.40625 C 1.796875 -1.90625 1.21875 -1.3125 0.625 -0.734375 Z M 0.625 0 "/>
</g>
<g id="glyph-1-0">
<path d="M 2.28125 0.109375 C 4.484375 0.109375 5.265625 -1.3125 5.640625 -3.296875 L 6.25 -6.375 C 6.296875 -6.6875 6.484375 -6.859375 6.9375 -6.890625 L 7.21875 -6.90625 C 7.265625 -6.90625 7.3125 -6.953125 7.3125 -7 L 7.359375 -7.21875 L 7.34375 -7.234375 C 6.828125 -7.234375 6.40625 -7.21875 6.15625 -7.21875 C 5.90625 -7.21875 5.484375 -7.234375 4.984375 -7.234375 L 4.953125 -7.21875 L 4.90625 -7 C 4.90625 -6.953125 4.9375 -6.90625 4.984375 -6.90625 L 5.265625 -6.890625 C 5.625 -6.875 5.765625 -6.765625 5.765625 -6.53125 C 5.765625 -6.484375 5.765625 -6.4375 5.75 -6.375 L 5.109375 -3.09375 C 4.859375 -1.84375 4.421875 -0.34375 2.59375 -0.34375 C 2.078125 -0.34375 1.6875 -0.578125 1.4375 -0.90625 C 1.203125 -1.203125 1.125 -1.5625 1.125 -1.90625 C 1.125 -2.265625 1.203125 -2.65625 1.265625 -3.015625 L 1.921875 -6.40625 C 1.984375 -6.71875 2.171875 -6.859375 2.625 -6.890625 L 2.890625 -6.90625 C 2.953125 -6.90625 2.984375 -6.953125 3 -7 L 3.046875 -7.21875 L 3.015625 -7.234375 C 2.515625 -7.234375 2.0625 -7.21875 1.640625 -7.21875 C 1.21875 -7.21875 0.796875 -7.234375 0.296875 -7.234375 L 0.25 -7.21875 L 0.21875 -7 C 0.21875 -6.953125 0.25 -6.90625 0.296875 -6.90625 L 0.578125 -6.890625 C 0.921875 -6.875 1.078125 -6.78125 1.078125 -6.546875 C 1.078125 -6.5 1.078125 -6.453125 1.0625 -6.40625 L 0.328125 -2.640625 C 0.265625 -2.34375 0.25 -2.09375 0.25 -1.859375 C 0.25 -0.25 1.4375 0.109375 2.28125 0.109375 Z M 2.28125 0.109375 "/>
</g>
<g id="glyph-2-0">
<path d="M 2.578125 -1.09375 L 2.578125 -4.203125 C 2.578125 -4.734375 2.59375 -5.28125 2.609375 -5.40625 C 2.609375 -5.4375 2.59375 -5.4375 2.546875 -5.4375 C 2.0625 -5.140625 1.578125 -4.921875 0.796875 -4.546875 C 0.8125 -4.453125 0.84375 -4.359375 0.9375 -4.3125 C 1.34375 -4.46875 1.546875 -4.53125 1.703125 -4.53125 C 1.859375 -4.53125 1.890625 -4.3125 1.890625 -4.015625 L 1.890625 -1.09375 C 1.890625 -0.34375 1.640625 -0.296875 1.015625 -0.28125 C 0.96875 -0.21875 0.96875 -0.03125 1.015625 0.015625 C 1.453125 0.015625 1.78125 0 2.265625 0 C 2.6875 0 2.90625 0.015625 3.359375 0.015625 C 3.40625 -0.03125 3.40625 -0.21875 3.359375 -0.28125 C 2.734375 -0.296875 2.578125 -0.34375 2.578125 -1.09375 Z M 2.578125 -1.09375 "/>
</g>
<g id="glyph-2-1">
<path d="M 1.921875 -5.140625 C 2.3125 -5.140625 2.671875 -4.921875 2.671875 -4.34375 C 2.671875 -3.890625 2.15625 -3.203125 1.265625 -3.078125 L 1.3125 -2.796875 C 1.453125 -2.8125 1.625 -2.8125 1.734375 -2.8125 C 2.25 -2.8125 2.90625 -2.671875 2.90625 -1.65625 C 2.90625 -0.46875 2.109375 -0.21875 1.796875 -0.21875 C 1.34375 -0.21875 1.265625 -0.4375 1.15625 -0.59375 C 1.0625 -0.71875 0.953125 -0.828125 0.765625 -0.828125 C 0.578125 -0.828125 0.390625 -0.65625 0.390625 -0.515625 C 0.390625 -0.15625 1.140625 0.09375 1.6875 0.09375 C 2.75 0.09375 3.703125 -0.59375 3.703125 -1.78125 C 3.703125 -2.75 2.96875 -3.109375 2.4375 -3.203125 L 2.421875 -3.21875 C 3.15625 -3.5625 3.359375 -3.9375 3.359375 -4.40625 C 3.359375 -4.671875 3.296875 -4.890625 3.09375 -5.109375 C 2.890625 -5.3125 2.578125 -5.46875 2.109375 -5.46875 C 0.796875 -5.46875 0.421875 -4.609375 0.421875 -4.3125 C 0.421875 -4.1875 0.515625 -4 0.71875 -4 C 1.03125 -4 1.078125 -4.296875 1.078125 -4.46875 C 1.078125 -5.046875 1.6875 -5.140625 1.921875 -5.140625 Z M 1.921875 -5.140625 "/>
</g>
<g id="glyph-2-2">
<path d="M 0.546875 -4.1875 C 0.546875 -4 0.71875 -3.84375 0.90625 -3.84375 C 1.0625 -3.84375 1.328125 -4 1.328125 -4.203125 C 1.328125 -4.265625 1.3125 -4.328125 1.296875 -4.390625 C 1.265625 -4.453125 1.21875 -4.53125 1.21875 -4.609375 C 1.21875 -4.828125 1.453125 -5.140625 2.109375 -5.140625 C 2.421875 -5.140625 2.890625 -4.921875 2.890625 -4.0625 C 2.890625 -3.484375 2.671875 -3.03125 2.15625 -2.484375 L 1.484375 -1.828125 C 0.609375 -0.9375 0.46875 -0.515625 0.46875 0.015625 C 0.46875 0.015625 0.921875 0 1.203125 0 L 2.78125 0 C 3.0625 0 3.46875 0.015625 3.46875 0.015625 C 3.59375 -0.453125 3.6875 -1.125 3.6875 -1.390625 C 3.640625 -1.4375 3.515625 -1.453125 3.421875 -1.4375 C 3.28125 -0.8125 3.125 -0.578125 2.796875 -0.578125 L 1.203125 -0.578125 C 1.203125 -1.015625 1.828125 -1.625 1.875 -1.671875 L 2.78125 -2.53125 C 3.28125 -3.03125 3.671875 -3.421875 3.671875 -4.09375 C 3.671875 -5.0625 2.890625 -5.46875 2.15625 -5.46875 C 1.15625 -5.46875 0.546875 -4.734375 0.546875 -4.1875 Z M 0.546875 -4.1875 "/>
</g>
<g id="glyph-3-0">
<path d="M 0.9375 -3.84375 L 0.46875 -3.8125 C 0.296875 -3.8125 0.234375 -3.734375 0.21875 -3.65625 C 0.203125 -3.640625 0.171875 -3.53125 0.171875 -3.515625 C 0.171875 -3.484375 0.203125 -3.484375 0.234375 -3.484375 L 0.859375 -3.484375 L 0.3125 -1.0625 C 0.25 -0.765625 0.1875 -0.5 0.1875 -0.328125 C 0.1875 0 0.34375 0.09375 0.625 0.09375 C 1.03125 0.09375 1.625 -0.28125 1.921875 -0.828125 C 1.890625 -0.953125 1.828125 -1 1.734375 -1 C 1.3125 -0.53125 1.15625 -0.453125 1.015625 -0.453125 C 0.984375 -0.453125 0.890625 -0.46875 0.890625 -0.578125 C 0.890625 -0.65625 0.921875 -0.828125 1 -1.140625 L 1.515625 -3.484375 L 2.40625 -3.484375 C 2.5 -3.53125 2.59375 -3.765625 2.484375 -3.84375 L 1.609375 -3.84375 L 1.6875 -4.25 C 1.734375 -4.40625 1.8125 -4.671875 1.8125 -4.78125 C 1.8125 -4.9375 1.734375 -5.015625 1.453125 -5.015625 C 1.125 -5.015625 1.140625 -4.625 1.0625 -4.28125 Z M 0.9375 -3.84375 "/>
</g>
<g id="glyph-3-1">
<path d="M 1.828125 0.09375 C 3.59375 0.09375 4.203125 -1.046875 4.515625 -2.640625 L 5 -5.109375 C 5.046875 -5.359375 5.1875 -5.484375 5.546875 -5.515625 L 5.78125 -5.53125 C 5.8125 -5.53125 5.84375 -5.5625 5.859375 -5.609375 L 5.890625 -5.78125 L 5.875 -5.796875 C 5.46875 -5.78125 5.125 -5.78125 4.921875 -5.78125 C 4.734375 -5.78125 4.390625 -5.78125 3.984375 -5.796875 L 3.96875 -5.78125 L 3.9375 -5.609375 C 3.921875 -5.5625 3.953125 -5.53125 3.984375 -5.53125 L 4.21875 -5.515625 C 4.5 -5.5 4.625 -5.421875 4.625 -5.234375 C 4.625 -5.1875 4.609375 -5.140625 4.609375 -5.109375 L 4.09375 -2.484375 C 3.890625 -1.484375 3.53125 -0.28125 2.078125 -0.28125 C 1.671875 -0.28125 1.359375 -0.46875 1.140625 -0.71875 C 0.953125 -0.96875 0.90625 -1.25 0.90625 -1.53125 C 0.90625 -1.8125 0.953125 -2.125 1.015625 -2.40625 L 1.546875 -5.125 C 1.59375 -5.375 1.734375 -5.484375 2.09375 -5.515625 L 2.3125 -5.53125 C 2.359375 -5.53125 2.390625 -5.5625 2.40625 -5.609375 L 2.4375 -5.78125 L 2.421875 -5.796875 C 2.015625 -5.78125 1.65625 -5.78125 1.3125 -5.78125 C 0.96875 -5.78125 0.640625 -5.78125 0.234375 -5.796875 L 0.203125 -5.78125 L 0.171875 -5.609375 C 0.171875 -5.5625 0.203125 -5.53125 0.234375 -5.53125 L 0.453125 -5.515625 C 0.734375 -5.5 0.875 -5.421875 0.875 -5.234375 C 0.875 -5.203125 0.859375 -5.171875 0.84375 -5.125 L 0.265625 -2.109375 C 0.21875 -1.875 0.203125 -1.671875 0.203125 -1.484375 C 0.203125 -0.203125 1.15625 0.09375 1.828125 0.09375 Z M 1.828125 0.09375 "/>
</g>
<g id="glyph-4-0">
<path d="M 0.4375 -3.34375 C 0.4375 -3.203125 0.578125 -3.0625 0.71875 -3.0625 C 0.84375 -3.0625 1.0625 -3.203125 1.0625 -3.359375 C 1.0625 -3.40625 1.046875 -3.453125 1.03125 -3.5 C 1.015625 -3.5625 0.96875 -3.625 0.96875 -3.671875 C 0.96875 -3.859375 1.15625 -4.109375 1.6875 -4.109375 C 1.9375 -4.109375 2.296875 -3.9375 2.296875 -3.25 C 2.296875 -2.796875 2.140625 -2.421875 1.71875 -1.984375 L 1.1875 -1.46875 C 0.484375 -0.75 0.375 -0.40625 0.375 0.015625 C 0.375 0.015625 0.734375 0 0.96875 0 L 2.21875 0 C 2.453125 0 2.78125 0.015625 2.78125 0.015625 C 2.875 -0.359375 2.9375 -0.90625 2.953125 -1.109375 C 2.90625 -1.15625 2.8125 -1.171875 2.734375 -1.15625 C 2.625 -0.640625 2.5 -0.46875 2.234375 -0.46875 L 0.96875 -0.46875 C 0.96875 -0.8125 1.453125 -1.296875 1.5 -1.328125 L 2.21875 -2.03125 C 2.625 -2.421875 2.9375 -2.734375 2.9375 -3.28125 C 2.9375 -4.046875 2.296875 -4.359375 1.71875 -4.359375 C 0.9375 -4.359375 0.4375 -3.78125 0.4375 -3.34375 Z M 0.4375 -3.34375 "/>
</g>
<g id="glyph-4-1">
<path d="M 2.0625 -0.875 L 2.0625 -3.359375 C 2.0625 -3.78125 2.0625 -4.21875 2.078125 -4.3125 C 2.078125 -4.34375 2.0625 -4.34375 2.046875 -4.34375 C 1.640625 -4.109375 1.265625 -3.921875 0.640625 -3.640625 C 0.65625 -3.5625 0.6875 -3.484375 0.75 -3.4375 C 1.078125 -3.578125 1.234375 -3.625 1.359375 -3.625 C 1.484375 -3.625 1.515625 -3.453125 1.515625 -3.203125 L 1.515625 -0.875 C 1.515625 -0.28125 1.3125 -0.25 0.8125 -0.21875 C 0.765625 -0.171875 0.765625 -0.03125 0.8125 0.015625 C 1.171875 0 1.421875 0 1.8125 0 C 2.15625 0 2.328125 0 2.6875 0.015625 C 2.71875 -0.03125 2.71875 -0.171875 2.6875 -0.21875 C 2.1875 -0.25 2.0625 -0.28125 2.0625 -0.875 Z M 2.0625 -0.875 "/>
</g>
<g id="glyph-4-2">
<path d="M 1.53125 -4.109375 C 1.84375 -4.109375 2.125 -3.921875 2.125 -3.46875 C 2.125 -3.109375 1.71875 -2.5625 1.015625 -2.46875 L 1.046875 -2.234375 C 1.171875 -2.25 1.296875 -2.25 1.390625 -2.25 C 1.796875 -2.25 2.328125 -2.125 2.328125 -1.328125 C 2.328125 -0.375 1.6875 -0.171875 1.4375 -0.171875 C 1.078125 -0.171875 1.015625 -0.34375 0.921875 -0.46875 C 0.859375 -0.578125 0.765625 -0.65625 0.609375 -0.65625 C 0.46875 -0.65625 0.3125 -0.515625 0.3125 -0.40625 C 0.3125 -0.125 0.921875 0.078125 1.34375 0.078125 C 2.203125 0.078125 2.953125 -0.484375 2.953125 -1.421875 C 2.953125 -2.203125 2.375 -2.484375 1.953125 -2.5625 L 1.9375 -2.5625 C 2.53125 -2.84375 2.6875 -3.140625 2.6875 -3.515625 C 2.6875 -3.734375 2.640625 -3.90625 2.46875 -4.09375 C 2.3125 -4.25 2.0625 -4.359375 1.6875 -4.359375 C 0.640625 -4.359375 0.34375 -3.671875 0.34375 -3.4375 C 0.34375 -3.34375 0.40625 -3.203125 0.578125 -3.203125 C 0.828125 -3.203125 0.859375 -3.4375 0.859375 -3.578125 C 0.859375 -4.03125 1.359375 -4.109375 1.53125 -4.109375 Z M 1.53125 -4.109375 "/>
</g>
</g>
<clipPath id="clip-0">
<path clip-rule="nonzero" d="M 233 9 L 257.496094 9 L 257.496094 107 L 233 107 Z M 233 9 "/>
</clipPath>
<clipPath id="clip-1">
<path clip-rule="nonzero" d="M 246 7 L 257.496094 7 L 257.496094 24 L 246 24 Z M 246 7 "/>
</clipPath>
<clipPath id="clip-2">
<path clip-rule="nonzero" d="M 252 83 L 257.496094 83 L 257.496094 89 L 252 89 Z M 252 83 "/>
</clipPath>
<clipPath id="clip-3">
<path clip-rule="nonzero" d="M 246 77 L 257.496094 77 L 257.496094 95 L 246 95 Z M 246 77 "/>
</clipPath>
<clipPath id="clip-4">
<path clip-rule="nonzero" d="M 247 93 L 257.496094 93 L 257.496094 109 L 247 109 Z M 247 93 "/>
</clipPath>
<clipPath id="clip-5">
<path clip-rule="nonzero" d="M 21.394531 170.683594 L 239.195312 170.683594 L 239.195312 221.605469 L 21.394531 221.605469 Z M 21.394531 170.683594 "/>
</clipPath>
<clipPath id="clip-6">
<path clip-rule="nonzero" d="M 21.394531 230.089844 L 239.195312 230.089844 L 239.195312 281.007812 L 21.394531 281.007812 Z M 21.394531 230.089844 "/>
</clipPath>
<clipPath id="clip-7">
<path clip-rule="nonzero" d="M 21.394531 289.492188 L 239.195312 289.492188 L 239.195312 340.414062 L 21.394531 340.414062 Z M 21.394531 289.492188 "/>
</clipPath>
<clipPath id="clip-8">
<path clip-rule="nonzero" d="M 21 292 L 22 292 L 22 340.613281 L 21 340.613281 Z M 21 292 "/>
</clipPath>
</defs>
<path fill="none" stroke-width="0.797" stroke-linecap="butt" stroke-linejoin="bevel" stroke="rgb(0%, 0%, 0%)" stroke-opacity="1" stroke-miterlimit="10" d="M -28.384634 32.609968 C -24.826622 32.609968 -21.941853 30.179247 -21.941853 27.177052 C -21.941853 24.174857 -24.826622 21.740222 -28.384634 21.740222 C -24.826622 21.740222 -21.941853 19.305587 -21.941853 16.307307 C -21.941853 13.305112 -24.826622 10.870477 -28.384634 10.870477 C -24.826622 10.870477 -21.941853 8.435842 -21.941853 5.433647 C -21.941853 2.435367 -24.826622 0.00073145 -28.384634 0.00073145 C -24.826622 0.00073145 -21.941853 -2.433904 -21.941853 -5.436098 C -21.941853 -8.438293 -24.826622 -10.869014 -28.384634 -10.869014 C -24.826622 -10.869014 -21.941853 -13.303649 -21.941853 -16.305844 C -21.941853 -19.308038 -24.826622 -21.742673 -28.384634 -21.742673 C -24.826622 -21.742673 -21.941853 -24.173394 -21.941853 -27.175589 C -21.941853 -30.177784 -24.826622 -32.612419 -28.384634 -32.612419 " transform="matrix(0.997968, 0, 0, -0.997968, 61.295701, 58.403074)"/>
<path fill="none" stroke-width="0.797" stroke-linecap="butt" stroke-linejoin="bevel" stroke="rgb(0%, 0%, 0%)" stroke-opacity="1" stroke-miterlimit="10" d="M -2.296462 -32.612419 C -5.854474 -32.612419 -8.735328 -30.177784 -8.735328 -27.175589 C -8.735328 -24.173394 -5.854474 -21.742673 -2.296462 -21.742673 C -5.854474 -21.742673 -8.735328 -19.308038 -8.735328 -16.305844 C -8.735328 -13.303649 -5.854474 -10.869014 -2.296462 -10.869014 C -5.854474 -10.869014 -8.735328 -8.438293 -8.735328 -5.436098 C -8.735328 -2.433904 -5.854474 0.00073145 -2.296462 0.00073145 C -5.854474 0.00073145 -8.735328 2.431452 -8.735328 5.433647 C -8.735328 8.435842 -5.854474 10.870477 -2.296462 10.870477 C -5.854474 10.870477 -8.735328 13.305112 -8.735328 16.307307 C -8.735328 19.305587 -5.854474 21.740222 -2.296462 21.740222 C -5.854474 21.740222 -8.735328 24.174857 -8.735328 27.177052 C -8.735328 30.179247 -5.854474 32.609968 -2.296462 32.609968 " transform="matrix(0.997968, 0, 0, -0.997968, 61.295701, 58.403074)"/>
<path fill="none" stroke-width="0.3985" stroke-linecap="butt" stroke-linejoin="miter" stroke="rgb(0%, 0%, 0%)" stroke-opacity="1" stroke-miterlimit="10" d="M -28.224151 42.951295 L -28.228065 32.218547 M -28.228065 -32.220998 L -28.224151 -42.949832 M -2.45303 42.951295 L -2.45303 32.218547 M -2.45303 -32.220998 L -2.45303 -42.949832 " transform="matrix(0.997968, 0, 0, -0.997968, 61.295701, 58.403074)"/>
<path fill="none" stroke-width="0.797" stroke-linecap="butt" stroke-linejoin="miter" stroke="rgb(0%, 0%, 0%)" stroke-opacity="1" stroke-miterlimit="10" d="M -13.729853 -21.476508 L -13.729853 21.474056 M -16.951243 -21.476508 L -16.951243 21.474056 " transform="matrix(0.997968, 0, 0, -0.997968, 61.295701, 58.403074)"/>
<g fill="rgb(0%, 0%, 0%)" fill-opacity="1">
<use xlink:href="#glyph-0-0" x="40.226604" y="11.04451"/>
<use xlink:href="#glyph-0-1" x="46.982464" y="11.04451"/>
</g>
<path fill="none" stroke-width="0.3985" stroke-linecap="butt" stroke-linejoin="miter" stroke="rgb(0%, 0%, 0%)" stroke-opacity="1" stroke-miterlimit="10" d="M -28.23198 42.959124 L -35.915563 42.978695 M -35.915563 42.978695 L -43.571746 42.959124 M -43.618717 30.16359 L -43.622631 -30.162127 M -43.579575 -42.961575 L -35.923391 -42.981146 M -35.923391 -42.981146 L -28.23198 -42.961575 " transform="matrix(0.997968, 0, 0, -0.997968, 61.295701, 58.403074)"/>
<path fill-rule="nonzero" fill="rgb(100%, 100%, 100%)" fill-opacity="1" stroke-width="0.3985" stroke-linecap="butt" stroke-linejoin="miter" stroke="rgb(0%, 0%, 0%)" stroke-opacity="1" stroke-miterlimit="10" d="M -41.587245 42.959124 C -41.587245 44.055101 -42.475769 44.943625 -43.571746 44.943625 C -44.667724 44.943625 -45.556248 44.055101 -45.556248 42.959124 C -45.556248 41.863146 -44.667724 40.974622 -43.571746 40.974622 C -42.475769 40.974622 -41.587245 41.863146 -41.587245 42.959124 Z M -41.587245 42.959124 " transform="matrix(0.997968, 0, 0, -0.997968, 61.295701, 58.403074)"/>
<path fill-rule="nonzero" fill="rgb(0%, 0%, 0%)" fill-opacity="1" stroke-width="0.3985" stroke-linecap="butt" stroke-linejoin="miter" stroke="rgb(0%, 0%, 0%)" stroke-opacity="1" stroke-miterlimit="10" d="M -43.622631 -24.893608 L -46.104237 -24.893608 L -43.622631 -30.162127 L -41.14494 -24.893608 Z M -43.622631 -24.893608 " transform="matrix(0.997968, 0, 0, -0.997968, 61.295701, 58.403074)"/>
<g fill="rgb(0%, 0%, 0%)" fill-opacity="1">
<use xlink:href="#glyph-1-0" x="2.667087" y="60.838115"/>
</g>
<g fill="rgb(0%, 0%, 0%)" fill-opacity="1">
<use xlink:href="#glyph-2-0" x="8.61747" y="63.187082"/>
</g>
<path fill-rule="nonzero" fill="rgb(100%, 100%, 100%)" fill-opacity="1" stroke-width="0.3985" stroke-linecap="butt" stroke-linejoin="miter" stroke="rgb(0%, 0%, 0%)" stroke-opacity="1" stroke-miterlimit="10" d="M -41.595073 -42.961575 C -41.595073 -41.865598 -42.483598 -40.977073 -43.579575 -40.977073 C -44.675552 -40.977073 -45.564076 -41.865598 -45.564076 -42.961575 C -45.564076 -44.057552 -44.675552 -44.942162 -43.579575 -44.942162 C -42.483598 -44.942162 -41.595073 -44.057552 -41.595073 -42.961575 Z M -41.595073 -42.961575 " transform="matrix(0.997968, 0, 0, -0.997968, 61.295701, 58.403074)"/>
<path fill="none" stroke-width="0.3985" stroke-linecap="butt" stroke-linejoin="miter" stroke="rgb(0%, 0%, 0%)" stroke-opacity="1" stroke-miterlimit="10" d="M -2.45303 42.959124 L 35.910086 42.978695 M 35.910086 42.978695 L 74.241889 42.959124 " transform="matrix(0.997968, 0, 0, -0.997968, 61.295701, 58.403074)"/>
<path fill-rule="nonzero" fill="rgb(0%, 0%, 0%)" fill-opacity="1" stroke-width="0.3985" stroke-linecap="butt" stroke-linejoin="miter" stroke="rgb(0%, 0%, 0%)" stroke-opacity="1" stroke-miterlimit="10" d="M 76.226391 42.959124 C 76.226391 44.055101 75.337866 44.943625 74.241889 44.943625 C 73.145912 44.943625 72.257387 44.055101 72.257387 42.959124 C 72.257387 41.863146 73.145912 40.974622 74.241889 40.974622 C 75.337866 40.974622 76.226391 41.863146 76.226391 42.959124 Z M 76.226391 42.959124 " transform="matrix(0.997968, 0, 0, -0.997968, 61.295701, 58.403074)"/>
<path fill="none" stroke-width="0.3985" stroke-linecap="butt" stroke-linejoin="miter" stroke="rgb(0%, 0%, 0%)" stroke-opacity="1" stroke-miterlimit="10" d="M -2.45303 -42.961575 L 35.910086 -42.981146 M 35.910086 -42.981146 L 74.241889 -42.961575 " transform="matrix(0.997968, 0, 0, -0.997968, 61.295701, 58.403074)"/>
<path fill-rule="nonzero" fill="rgb(0%, 0%, 0%)" fill-opacity="1" stroke-width="0.3985" stroke-linecap="butt" stroke-linejoin="miter" stroke="rgb(0%, 0%, 0%)" stroke-opacity="1" stroke-miterlimit="10" d="M 76.226391 -42.961575 C 76.226391 -41.865598 75.337866 -40.977073 74.241889 -40.977073 C 73.145912 -40.977073 72.257387 -41.865598 72.257387 -42.961575 C 72.257387 -44.057552 73.145912 -44.942162 74.241889 -44.942162 C 75.337866 -44.942162 76.226391 -44.057552 76.226391 -42.961575 Z M 76.226391 -42.961575 " transform="matrix(0.997968, 0, 0, -0.997968, 61.295701, 58.403074)"/>
<path fill="none" stroke-width="0.3985" stroke-linecap="butt" stroke-linejoin="miter" stroke="rgb(0%, 0%, 0%)" stroke-opacity="1" stroke-miterlimit="10" d="M 74.26146 42.970866 L 55.531992 27.059626 M 42.435065 15.931543 L 23.662541 0.00073145 " transform="matrix(0.997968, 0, 0, -0.997968, 61.295701, 58.403074)"/>
<path fill="none" stroke-width="0.797" stroke-linecap="butt" stroke-linejoin="miter" stroke="rgb(0%, 0%, 0%)" stroke-opacity="1" stroke-miterlimit="10" d="M 55.508507 27.043969 L 49.363206 7.739113 L 35.463867 24.108316 Z M 55.508507 27.043969 " transform="matrix(0.997968, 0, 0, -0.997968, 61.295701, 58.403074)"/>
<path fill="none" stroke-width="0.3985" stroke-linecap="butt" stroke-linejoin="miter" stroke="rgb(0%, 0%, 0%)" stroke-opacity="1" stroke-miterlimit="10" d="M 55.508507 27.043969 L 42.415494 15.923715 " transform="matrix(0.997968, 0, 0, -0.997968, 61.295701, 58.403074)"/>
<path fill="none" stroke-width="0.797" stroke-linecap="butt" stroke-linejoin="miter" stroke="rgb(0%, 0%, 0%)" stroke-opacity="1" stroke-miterlimit="10" d="M 48.55688 35.22857 L 62.460134 18.863282 " transform="matrix(0.997968, 0, 0, -0.997968, 61.295701, 58.403074)"/>
<path fill-rule="nonzero" fill="rgb(0%, 0%, 0%)" fill-opacity="1" stroke-width="0.3985" stroke-linecap="butt" stroke-linejoin="miter" stroke="rgb(0%, 0%, 0%)" stroke-opacity="1" stroke-miterlimit="10" d="M 25.647043 0.00073145 C 25.647043 1.096709 24.758518 1.985233 23.662541 1.985233 C 22.566564 1.985233 21.678039 1.096709 21.678039 0.00073145 C 21.678039 -1.095246 22.566564 -1.98377 23.662541 -1.98377 C 24.758518 -1.98377 25.647043 -1.095246 25.647043 0.00073145 Z M 25.647043 0.00073145 " transform="matrix(0.997968, 0, 0, -0.997968, 61.295701, 58.403074)"/>
<path fill="none" stroke-width="0.3985" stroke-linecap="butt" stroke-linejoin="miter" stroke="rgb(0%, 0%, 0%)" stroke-opacity="1" stroke-miterlimit="10" d="M 74.26146 42.970866 L 93.084868 27.051797 M 106.193539 15.935457 L 124.926921 0.00073145 " transform="matrix(0.997968, 0, 0, -0.997968, 61.295701, 58.403074)"/>
<path fill="none" stroke-width="0.797" stroke-linecap="butt" stroke-linejoin="miter" stroke="rgb(0%, 0%, 0%)" stroke-opacity="1" stroke-miterlimit="10" d="M 106.142654 15.927629 L 99.985611 35.22857 L 86.098014 18.851539 Z M 106.142654 15.927629 " transform="matrix(0.997968, 0, 0, -0.997968, 61.295701, 58.403074)"/>
<path fill="none" stroke-width="0.3985" stroke-linecap="butt" stroke-linejoin="miter" stroke="rgb(0%, 0%, 0%)" stroke-opacity="1" stroke-miterlimit="10" d="M 106.142654 15.927629 L 93.041812 27.040055 " transform="matrix(0.997968, 0, 0, -0.997968, 61.295701, 58.403074)"/>
<path fill="none" stroke-width="0.797" stroke-linecap="butt" stroke-linejoin="miter" stroke="rgb(0%, 0%, 0%)" stroke-opacity="1" stroke-miterlimit="10" d="M 99.198856 7.739113 L 113.086452 24.116144 " transform="matrix(0.997968, 0, 0, -0.997968, 61.295701, 58.403074)"/>
<path fill-rule="nonzero" fill="rgb(0%, 0%, 0%)" fill-opacity="1" stroke-width="0.3985" stroke-linecap="butt" stroke-linejoin="miter" stroke="rgb(0%, 0%, 0%)" stroke-opacity="1" stroke-miterlimit="10" d="M 126.911422 0.00073145 C 126.911422 1.096709 126.022898 1.985233 124.926921 1.985233 C 123.830943 1.985233 122.942419 1.096709 122.942419 0.00073145 C 122.942419 -1.095246 123.830943 -1.98377 124.926921 -1.98377 C 126.022898 -1.98377 126.911422 -1.095246 126.911422 0.00073145 Z M 126.911422 0.00073145 " transform="matrix(0.997968, 0, 0, -0.997968, 61.295701, 58.403074)"/>
<path fill="none" stroke-width="0.3985" stroke-linecap="butt" stroke-linejoin="miter" stroke="rgb(0%, 0%, 0%)" stroke-opacity="1" stroke-miterlimit="10" d="M 74.26146 -42.969403 L 55.531992 -27.058163 M 42.435065 -15.933994 L 23.662541 0.00073145 " transform="matrix(0.997968, 0, 0, -0.997968, 61.295701, 58.403074)"/>
<path fill="none" stroke-width="0.797" stroke-linecap="butt" stroke-linejoin="miter" stroke="rgb(0%, 0%, 0%)" stroke-opacity="1" stroke-miterlimit="10" d="M 42.415494 -15.926166 L 48.55688 -35.227107 L 62.460134 -18.861819 Z M 42.415494 -15.926166 " transform="matrix(0.997968, 0, 0, -0.997968, 61.295701, 58.403074)"/>
<path fill="none" stroke-width="0.3985" stroke-linecap="butt" stroke-linejoin="miter" stroke="rgb(0%, 0%, 0%)" stroke-opacity="1" stroke-miterlimit="10" d="M 42.415494 -15.926166 L 55.508507 -27.04642 " transform="matrix(0.997968, 0, 0, -0.997968, 61.295701, 58.403074)"/>
<path fill="none" stroke-width="0.797" stroke-linecap="butt" stroke-linejoin="miter" stroke="rgb(0%, 0%, 0%)" stroke-opacity="1" stroke-miterlimit="10" d="M 49.363206 -7.741565 L 35.463867 -24.106853 " transform="matrix(0.997968, 0, 0, -0.997968, 61.295701, 58.403074)"/>
<path fill-rule="nonzero" fill="rgb(0%, 0%, 0%)" fill-opacity="1" stroke-width="0.3985" stroke-linecap="butt" stroke-linejoin="miter" stroke="rgb(0%, 0%, 0%)" stroke-opacity="1" stroke-miterlimit="10" d="M 25.647043 0.00073145 C 25.647043 1.096709 24.758518 1.985233 23.662541 1.985233 C 22.566564 1.985233 21.678039 1.096709 21.678039 0.00073145 C 21.678039 -1.095246 22.566564 -1.98377 23.662541 -1.98377 C 24.758518 -1.98377 25.647043 -1.095246 25.647043 0.00073145 Z M 25.647043 0.00073145 " transform="matrix(0.997968, 0, 0, -0.997968, 61.295701, 58.403074)"/>
<path fill="none" stroke-width="0.3985" stroke-linecap="butt" stroke-linejoin="miter" stroke="rgb(0%, 0%, 0%)" stroke-opacity="1" stroke-miterlimit="10" d="M 74.26146 -42.969403 L 93.084868 -27.054249 M 106.193539 -15.937908 L 124.926921 0.00073145 " transform="matrix(0.997968, 0, 0, -0.997968, 61.295701, 58.403074)"/>
<path fill="none" stroke-width="0.797" stroke-linecap="butt" stroke-linejoin="miter" stroke="rgb(0%, 0%, 0%)" stroke-opacity="1" stroke-miterlimit="10" d="M 93.041812 -27.042506 L 99.198856 -7.741565 L 113.086452 -24.118595 Z M 93.041812 -27.042506 " transform="matrix(0.997968, 0, 0, -0.997968, 61.295701, 58.403074)"/>
<path fill="none" stroke-width="0.3985" stroke-linecap="butt" stroke-linejoin="miter" stroke="rgb(0%, 0%, 0%)" stroke-opacity="1" stroke-miterlimit="10" d="M 93.041812 -27.042506 L 106.142654 -15.93008 " transform="matrix(0.997968, 0, 0, -0.997968, 61.295701, 58.403074)"/>
<path fill="none" stroke-width="0.797" stroke-linecap="butt" stroke-linejoin="miter" stroke="rgb(0%, 0%, 0%)" stroke-opacity="1" stroke-miterlimit="10" d="M 99.985611 -35.231021 L 86.098014 -18.853991 " transform="matrix(0.997968, 0, 0, -0.997968, 61.295701, 58.403074)"/>
<path fill-rule="nonzero" fill="rgb(0%, 0%, 0%)" fill-opacity="1" stroke-width="0.3985" stroke-linecap="butt" stroke-linejoin="miter" stroke="rgb(0%, 0%, 0%)" stroke-opacity="1" stroke-miterlimit="10" d="M 126.911422 0.00073145 C 126.911422 1.096709 126.022898 1.985233 124.926921 1.985233 C 123.830943 1.985233 122.942419 1.096709 122.942419 0.00073145 C 122.942419 -1.095246 123.830943 -1.98377 124.926921 -1.98377 C 126.022898 -1.98377 126.911422 -1.095246 126.911422 0.00073145 Z M 126.911422 0.00073145 " transform="matrix(0.997968, 0, 0, -0.997968, 61.295701, 58.403074)"/>
<path fill="none" stroke-width="0.3985" stroke-linecap="butt" stroke-linejoin="miter" stroke="rgb(0%, 0%, 0%)" stroke-opacity="1" stroke-miterlimit="10" d="M 124.926921 0.00073145 L 124.985634 -21.48825 M 124.985634 -21.48825 L 124.926921 -42.961575 L 138.794946 -42.981146 M 138.794946 -42.981146 L 152.537718 -42.961575 " transform="matrix(0.997968, 0, 0, -0.997968, 61.295701, 58.403074)"/>
<path fill="none" stroke-width="0.797" stroke-linecap="butt" stroke-linejoin="bevel" stroke="rgb(0%, 0%, 0%)" stroke-opacity="1" stroke-miterlimit="10" d="M 152.377235 32.602139 C 155.935247 32.602139 158.820016 30.167504 158.820016 27.165309 C 158.820016 24.163115 155.935247 21.732394 152.377235 21.732394 C 155.935247 21.732394 158.820016 19.297759 158.820016 16.295564 C 158.820016 13.293369 155.935247 10.858734 152.377235 10.858734 C 155.935247 10.858734 158.820016 8.428013 158.820016 5.425819 C 158.820016 2.423624 155.935247 -0.0110112 152.377235 -0.0110112 C 155.935247 -0.0110112 158.820016 -2.441732 158.820016 -5.443927 C 158.820016 -8.446121 155.935247 -10.880757 152.377235 -10.880757 C 155.935247 -10.880757 158.820016 -13.315392 158.820016 -16.313672 C 158.820016 -19.315867 155.935247 -21.750502 152.377235 -21.750502 C 155.935247 -21.750502 158.820016 -24.185137 158.820016 -27.187332 C 158.820016 -30.189526 155.935247 -32.620247 152.377235 -32.620247 " transform="matrix(0.997968, 0, 0, -0.997968, 61.295701, 58.403074)"/>
<path fill="none" stroke-width="0.797" stroke-linecap="butt" stroke-linejoin="bevel" stroke="rgb(0%, 0%, 0%)" stroke-opacity="1" stroke-miterlimit="10" d="M 178.465407 -32.620247 C 174.907395 -32.620247 172.022627 -30.189526 172.022627 -27.187332 C 172.022627 -24.185137 174.907395 -21.750502 178.465407 -21.750502 C 174.907395 -21.750502 172.022627 -19.315867 172.022627 -16.313672 C 172.022627 -13.315392 174.907395 -10.880757 178.465407 -10.880757 C 174.907395 -10.880757 172.022627 -8.446121 172.022627 -5.443927 C 172.022627 -2.441732 174.907395 -0.0110112 178.465407 -0.0110112 C 174.907395 -0.0110112 172.022627 2.423624 172.022627 5.425819 C 172.022627 8.428013 174.907395 10.858734 178.465407 10.858734 C 174.907395 10.858734 172.022627 13.293369 172.022627 16.295564 C 172.022627 19.297759 174.907395 21.732394 178.465407 21.732394 C 174.907395 21.732394 172.022627 24.163115 172.022627 27.165309 C 172.022627 30.167504 174.907395 32.602139 178.465407 32.602139 " transform="matrix(0.997968, 0, 0, -0.997968, 61.295701, 58.403074)"/>
<path fill="none" stroke-width="0.3985" stroke-linecap="butt" stroke-linejoin="miter" stroke="rgb(0%, 0%, 0%)" stroke-opacity="1" stroke-miterlimit="10" d="M 152.537718 42.939553 L 152.533803 32.210719 M 152.533803 -32.228827 L 152.537718 -42.961575 M 178.304925 42.939553 L 178.308839 32.210719 M 178.308839 -32.228827 L 178.304925 -42.961575 " transform="matrix(0.997968, 0, 0, -0.997968, 61.295701, 58.403074)"/>
<path fill="none" stroke-width="0.797" stroke-linecap="butt" stroke-linejoin="miter" stroke="rgb(0%, 0%, 0%)" stroke-opacity="1" stroke-miterlimit="10" d="M 167.032016 -21.484336 L 167.032016 21.466228 M 163.810626 -21.484336 L 163.810626 21.466228 " transform="matrix(0.997968, 0, 0, -0.997968, 61.295701, 58.403074)"/>
<g fill="rgb(0%, 0%, 0%)" fill-opacity="1">
<use xlink:href="#glyph-0-0" x="220.160205" y="11.05449"/>
<use xlink:href="#glyph-0-2" x="226.916065" y="11.05449"/>
</g>
<g clip-path="url(#clip-0)">
<path fill="none" stroke-width="0.3985" stroke-linecap="butt" stroke-linejoin="miter" stroke="rgb(0%, 0%, 0%)" stroke-opacity="1" stroke-miterlimit="10" d="M 178.347981 42.951295 L 186.105934 42.970866 M 186.105934 42.970866 L 193.687748 42.951295 M 193.8952 30.151847 L 193.926514 -30.17387 M 193.734718 -42.969403 L 186.125505 -42.988974 M 186.125505 -42.988974 L 178.347981 -42.969403 " transform="matrix(0.997968, 0, 0, -0.997968, 61.295701, 58.403074)"/>
</g>
<path fill-rule="nonzero" fill="rgb(100%, 100%, 100%)" fill-opacity="1" d="M 256.570312 15.539062 C 256.570312 14.445312 255.683594 13.558594 254.589844 13.558594 C 253.496094 13.558594 252.609375 14.445312 252.609375 15.539062 C 252.609375 16.632812 253.496094 17.519531 254.589844 17.519531 C 255.683594 17.519531 256.570312 16.632812 256.570312 15.539062 Z M 256.570312 15.539062 "/>
<g clip-path="url(#clip-1)">
<path fill="none" stroke-width="0.3985" stroke-linecap="butt" stroke-linejoin="miter" stroke="rgb(0%, 0%, 0%)" stroke-opacity="1" stroke-miterlimit="10" d="M 195.672249 42.951295 C 195.672249 44.047272 194.783725 44.935797 193.687748 44.935797 C 192.59177 44.935797 191.703246 44.047272 191.703246 42.951295 C 191.703246 41.855318 192.59177 40.966794 193.687748 40.966794 C 194.783725 40.966794 195.672249 41.855318 195.672249 42.951295 Z M 195.672249 42.951295 " transform="matrix(0.997968, 0, 0, -0.997968, 61.295701, 58.403074)"/>
</g>
<g clip-path="url(#clip-2)">
<path fill-rule="nonzero" fill="rgb(0%, 0%, 0%)" fill-opacity="1" d="M 254.824219 83.253906 L 252.347656 83.253906 L 254.828125 88.515625 L 257.300781 83.253906 Z M 254.824219 83.253906 "/>
</g>
<g clip-path="url(#clip-3)">
<path fill="none" stroke-width="0.3985" stroke-linecap="butt" stroke-linejoin="miter" stroke="rgb(0%, 0%, 0%)" stroke-opacity="1" stroke-miterlimit="10" d="M 193.9226 -24.901436 L 191.440994 -24.901436 L 193.926514 -30.17387 L 196.404205 -24.901436 Z M 193.9226 -24.901436 " transform="matrix(0.997968, 0, 0, -0.997968, 61.295701, 58.403074)"/>
</g>
<g fill="rgb(0%, 0%, 0%)" fill-opacity="1">
<use xlink:href="#glyph-1-0" x="239.853105" y="60.813166"/>
</g>
<g fill="rgb(0%, 0%, 0%)" fill-opacity="1">
<use xlink:href="#glyph-2-1" x="245.803488" y="63.162133"/>
</g>
<path fill-rule="nonzero" fill="rgb(100%, 100%, 100%)" fill-opacity="1" d="M 256.613281 101.285156 C 256.613281 100.191406 255.726562 99.304688 254.636719 99.304688 C 253.542969 99.304688 252.65625 100.191406 252.65625 101.285156 C 252.65625 102.378906 253.542969 103.265625 254.636719 103.265625 C 255.726562 103.265625 256.613281 102.378906 256.613281 101.285156 Z M 256.613281 101.285156 "/>
<g clip-path="url(#clip-4)">
<path fill="none" stroke-width="0.3985" stroke-linecap="butt" stroke-linejoin="miter" stroke="rgb(0%, 0%, 0%)" stroke-opacity="1" stroke-miterlimit="10" d="M 195.715305 -42.969403 C 195.715305 -41.873426 194.826781 -40.984902 193.734718 -40.984902 C 192.638741 -40.984902 191.750216 -41.873426 191.750216 -42.969403 C 191.750216 -44.065381 192.638741 -44.953905 193.734718 -44.953905 C 194.826781 -44.953905 195.715305 -44.065381 195.715305 -42.969403 Z M 195.715305 -42.969403 " transform="matrix(0.997968, 0, 0, -0.997968, 61.295701, 58.403074)"/>
</g>
<path fill="none" stroke-width="0.3985" stroke-linecap="butt" stroke-linejoin="miter" stroke="rgb(0%, 0%, 0%)" stroke-opacity="1" stroke-miterlimit="10" d="M 152.572946 42.951295 L 152.643401 50.642707 M 152.643401 50.642707 L 152.572946 58.291062 L 88.156885 58.322376 M 88.156885 58.322376 L 23.662541 58.302805 L 23.674284 29.165468 M 23.674284 29.165468 L 23.662541 0.00073145 " transform="matrix(0.997968, 0, 0, -0.997968, 61.295701, 58.403074)"/>
<path fill="none" stroke-width="0.3985" stroke-linecap="butt" stroke-linejoin="miter" stroke="rgb(0%, 0%, 0%)" stroke-opacity="1" stroke-miterlimit="10" d="M -2.45303 0.00073145 L 1.378976 0.00073145 M 1.378976 0.00073145 L 5.214896 0.00073145 L 5.21881 -34.530379 M 5.21881 -34.530379 L 5.214896 -69.026261 " transform="matrix(0.997968, 0, 0, -0.997968, 61.295701, 58.403074)"/>
<path fill-rule="nonzero" fill="rgb(0%, 0%, 0%)" fill-opacity="1" stroke-width="0.3985" stroke-linecap="butt" stroke-linejoin="miter" stroke="rgb(0%, 0%, 0%)" stroke-opacity="1" stroke-miterlimit="10" d="M -0.472443 0.00073145 C -0.472443 1.096709 -1.360967 1.985233 -2.45303 1.985233 C -3.549007 1.985233 -4.437532 1.096709 -4.437532 0.00073145 C -4.437532 -1.095246 -3.549007 -1.98377 -2.45303 -1.98377 C -1.360967 -1.98377 -0.472443 -1.095246 -0.472443 0.00073145 Z M -0.472443 0.00073145 " transform="matrix(0.997968, 0, 0, -0.997968, 61.295701, 58.403074)"/>
<path fill="none" stroke-width="0.3985" stroke-linecap="butt" stroke-linejoin="miter" stroke="rgb(0%, 0%, 0%)" stroke-opacity="1" stroke-miterlimit="10" d="M 152.572946 -0.0110112 L 148.807481 -0.0110112 M 148.807481 -0.0110112 L 144.901105 -0.0110112 L 144.971561 -34.538207 M 144.971561 -34.538207 L 144.901105 -69.038004 " transform="matrix(0.997968, 0, 0, -0.997968, 61.295701, 58.403074)"/>
<path fill-rule="nonzero" fill="rgb(0%, 0%, 0%)" fill-opacity="1" stroke-width="0.3985" stroke-linecap="butt" stroke-linejoin="miter" stroke="rgb(0%, 0%, 0%)" stroke-opacity="1" stroke-miterlimit="10" d="M 154.557447 -0.0110112 C 154.557447 1.084966 153.668923 1.97349 152.572946 1.97349 C 151.476968 1.97349 150.588444 1.084966 150.588444 -0.0110112 C 150.588444 -1.106988 151.476968 -1.995513 152.572946 -1.995513 C 153.668923 -1.995513 154.557447 -1.106988 154.557447 -0.0110112 Z M 154.557447 -0.0110112 " transform="matrix(0.997968, 0, 0, -0.997968, 61.295701, 58.403074)"/>
<path fill="none" stroke-width="0.3985" stroke-linecap="butt" stroke-linejoin="miter" stroke="rgb(0%, 0%, 0%)" stroke-opacity="1" stroke-miterlimit="10" d="M 5.214896 -69.041918 L 60.072469 -69.08106 M 34.215236 -89.113958 L 116.108218 -89.117872 M 90.149215 -69.08106 L 144.936333 -69.053661 " transform="matrix(0.997968, 0, 0, -0.997968, 61.295701, 58.403074)"/>
<path fill="none" stroke-width="0.797" stroke-linecap="butt" stroke-linejoin="miter" stroke="rgb(0%, 0%, 0%)" stroke-opacity="1" stroke-miterlimit="10" d="M 90.106159 -84.080291 L 60.041156 -84.080291 L 60.04507 -54.015288 L 90.110073 -54.019202 Z M 90.106159 -84.080291 " transform="matrix(0.997968, 0, 0, -0.997968, 61.295701, 58.403074)"/>
<path fill="none" stroke-width="0.3985" stroke-linecap="butt" stroke-linejoin="miter" stroke="rgb(0%, 0%, 0%)" stroke-opacity="1" stroke-miterlimit="10" d="M 64.554233 -74.310437 L 68.762003 -74.310437 L 68.762003 -63.785142 L 72.973687 -63.785142 L 72.969773 -74.310437 L 77.181456 -74.310437 L 77.181456 -63.789056 L 81.389226 -63.789056 L 81.389226 -74.310437 L 85.596996 -74.310437 " transform="matrix(0.997968, 0, 0, -0.997968, 61.295701, 58.403074)"/>
<path fill-rule="nonzero" fill="rgb(0%, 0%, 0%)" fill-opacity="1" stroke-width="0.3985" stroke-linecap="butt" stroke-linejoin="miter" stroke="rgb(0%, 0%, 0%)" stroke-opacity="1" stroke-miterlimit="10" d="M 110.835785 -89.117872 L 110.835785 -91.599478 L 116.108218 -89.117872 L 110.835785 -86.640181 Z M 110.835785 -89.117872 " transform="matrix(0.997968, 0, 0, -0.997968, 61.295701, 58.403074)"/>
<g fill="rgb(0%, 0%, 0%)" fill-opacity="1">
<use xlink:href="#glyph-1-0" x="131.042676" y="157.349589"/>
</g>
<g fill="rgb(0%, 0%, 0%)" fill-opacity="1">
<use xlink:href="#glyph-2-2" x="136.993059" y="159.698556"/>
</g>
<g clip-path="url(#clip-5)">
<path fill="none" stroke-width="0.79701" stroke-linecap="butt" stroke-linejoin="miter" stroke="rgb(0%, 62.745667%, 86.274719%)" stroke-opacity="1" stroke-miterlimit="10" d="M -0.00142102 25.513059 L 0.182547 48.473782 L 8.731169 48.473782 L 8.911222 2.552337 L 17.459844 2.552337 L 17.639898 48.473782 L 26.18852 48.473782 L 26.372488 2.552337 L 34.92111 2.552337 L 35.101163 48.473782 L 43.649785 48.473782 L 43.829839 2.552337 L 52.378461 2.552337 L 52.562429 48.473782 L 61.111051 48.473782 L 61.291104 2.552337 L 69.839726 2.552337 L 70.01978 48.473782 L 78.568402 48.473782 L 78.75237 2.552337 L 87.300992 2.552337 L 87.481045 48.473782 L 96.029667 48.473782 L 96.209721 2.552337 L 104.758343 2.552337 L 104.942311 48.473782 L 113.487019 48.473782 L 113.670986 2.552337 L 122.219608 2.552337 L 122.399662 48.473782 L 130.948284 48.473782 L 131.132252 2.552337 L 139.67696 2.552337 L 139.860927 48.473782 L 148.409549 48.473782 L 148.589603 2.552337 L 157.138225 2.552337 L 157.318278 48.473782 L 165.866901 48.473782 L 166.050868 2.552337 L 174.59949 2.552337 L 174.779544 48.473782 L 183.328166 48.473782 L 183.508219 2.552337 L 192.056842 2.552337 L 192.240809 48.473782 L 200.789431 48.473782 L 200.969485 2.552337 L 209.518107 2.552337 L 209.69816 48.473782 L 218.246783 48.473782 " transform="matrix(0.997968, 0, 0, -0.997968, 21.395949, 221.605744)"/>
</g>
<path fill="none" stroke-width="0.3985" stroke-linecap="butt" stroke-linejoin="miter" stroke="rgb(0%, 0%, 0%)" stroke-opacity="1" stroke-miterlimit="10" d="M -0.00142102 25.513059 L 214.770969 25.513059 " transform="matrix(0.997968, 0, 0, -0.997968, 21.395949, 221.605744)"/>
<path fill-rule="nonzero" fill="rgb(0%, 0%, 0%)" fill-opacity="1" stroke-width="0.3985" stroke-linecap="butt" stroke-linejoin="miter" stroke="rgb(0%, 0%, 0%)" stroke-opacity="1" stroke-miterlimit="10" d="M 3.17158 0.00110928 L 0.200698 1.762501 L 0.200698 -1.764197 Z M 3.17158 0.00110928 " transform="matrix(0.997968, 0, 0, -0.997968, 235.631741, 196.145638)"/>
<path fill="none" stroke-width="0.3985" stroke-linecap="butt" stroke-linejoin="miter" stroke="rgb(0%, 0%, 0%)" stroke-opacity="1" stroke-miterlimit="10" d="M -0.00142102 0.000275626 L -0.00142102 47.55003 " transform="matrix(0.997968, 0, 0, -0.997968, 21.395949, 221.605744)"/>
<path fill-rule="nonzero" fill="rgb(0%, 0%, 0%)" fill-opacity="1" stroke-width="0.3985" stroke-linecap="butt" stroke-linejoin="miter" stroke="rgb(0%, 0%, 0%)" stroke-opacity="1" stroke-miterlimit="10" d="M 3.174664 0.00142102 L 0.199869 1.762813 L 0.199869 -1.763885 Z M 3.174664 0.00142102 " transform="matrix(0, -0.997968, -0.997968, 0, 21.395949, 174.250244)"/>
<g fill="rgb(0%, 0%, 0%)" fill-opacity="1">
<use xlink:href="#glyph-3-0" x="237.838208" y="204.346888"/>
</g>
<g fill="rgb(0%, 0%, 0%)" fill-opacity="1">
<use xlink:href="#glyph-3-1" x="9.741681" y="172.634464"/>
</g>
<g fill="rgb(0%, 0%, 0%)" fill-opacity="1">
<use xlink:href="#glyph-4-0" x="14.501988" y="174.513638"/>
</g>
<g clip-path="url(#clip-6)">
<path fill="none" stroke-width="0.79701" stroke-linecap="butt" stroke-linejoin="miter" stroke="rgb(0%, 62.745667%, 86.274719%)" stroke-opacity="1" stroke-miterlimit="10" d="M -0.00142102 25.50984 C -0.00142102 25.50984 0.393914 25.838633 0.546568 25.963888 C 0.699222 26.089142 0.941902 26.288767 1.094556 26.414021 C 1.24721 26.539276 1.489891 26.742815 1.642545 26.868069 C 1.791285 26.993324 2.037879 27.192948 2.186619 27.318203 C 2.339273 27.443457 2.581954 27.643082 2.734608 27.768336 C 2.887262 27.893591 3.129942 28.093215 3.282596 28.21847 C 3.43525 28.33981 3.677931 28.539434 3.830585 28.664689 C 3.979325 28.789943 4.22592 28.989568 4.374659 29.110908 C 4.527313 29.236163 4.769994 29.435787 4.922648 29.557127 C 5.075302 29.682382 5.317983 29.878092 5.470637 30.003347 C 5.623291 30.124687 5.865971 30.320397 6.018625 30.445652 C 6.167365 30.566992 6.41396 30.762702 6.5627 30.884043 C 6.715354 31.005383 6.958034 31.201093 7.110688 31.322434 C 7.263342 31.443774 7.506023 31.639484 7.658677 31.760824 C 7.811331 31.878251 8.054011 32.073961 8.206665 32.191387 C 8.355405 32.312727 8.598086 32.504523 8.75074 32.625864 C 8.903394 32.74329 9.146074 32.935086 9.298728 33.052512 C 9.451382 33.169938 9.694063 33.361734 9.846717 33.47916 C 9.999371 33.596586 10.242052 33.784468 10.390791 33.901894 C 10.543445 34.015406 10.786126 34.203288 10.93878 34.320714 C 11.091434 34.434226 11.334115 34.618194 11.486769 34.73562 C 11.639423 34.849132 11.882103 35.033099 12.034757 35.146611 C 12.187411 35.260123 12.430092 35.444091 12.578832 35.553688 C 12.731486 35.6672 12.974166 35.847254 13.12682 35.960766 C 13.279474 36.070363 13.522155 36.250417 13.674809 36.360015 C 13.827463 36.469612 14.070143 36.645751 14.222797 36.755349 C 14.371537 36.864947 14.618132 37.041086 14.766872 37.14677 C 14.919526 37.256367 15.162206 37.428592 15.31486 37.534276 C 15.467514 37.643874 15.710195 37.812184 15.862849 37.917868 C 16.015503 38.023551 16.258184 38.191862 16.410838 38.297546 C 16.559577 38.399315 16.806172 38.567626 16.954912 38.669395 C 17.107566 38.771164 17.350247 38.935561 17.502901 39.03733 C 17.655555 39.1391 17.898235 39.299582 18.050889 39.397437 C 18.203543 39.499206 18.446224 39.659689 18.598878 39.757544 C 18.747618 39.855399 18.994212 40.011967 19.142952 40.109822 C 19.295606 40.203763 19.538287 40.360331 19.690941 40.454272 C 19.843595 40.548213 20.086275 40.700867 20.238929 40.794808 C 20.391583 40.888749 20.634264 41.037489 20.786918 41.127515 C 20.935658 41.221456 21.182253 41.366282 21.330992 41.456309 C 21.483646 41.546335 21.726327 41.691161 21.878981 41.777273 C 22.031635 41.8673 22.274316 42.008211 22.42697 42.094324 C 22.579624 42.180436 22.822304 42.317434 22.974958 42.403546 C 23.123698 42.489658 23.370293 42.622741 23.519033 42.708854 C 23.671687 42.791052 23.914367 42.920221 24.067021 43.002419 C 24.219675 43.084618 24.462356 43.213786 24.61501 43.29207 C 24.767664 43.370354 25.010344 43.499523 25.162998 43.573893 C 25.311738 43.652177 25.558333 43.773518 25.707073 43.851802 C 25.859727 43.926171 26.102407 44.043598 26.255061 44.117967 C 26.407715 44.192337 26.650396 44.309763 26.80305 44.380219 C 26.955704 44.450675 27.198385 44.564187 27.351039 44.634642 C 27.499778 44.705098 27.746373 44.814696 27.895113 44.881237 C 28.047767 44.947779 28.290448 45.053462 28.443102 45.120004 C 28.595756 45.182631 28.838436 45.288315 28.99109 45.350942 C 29.143744 45.413569 29.386425 45.511424 29.539079 45.574051 C 29.687819 45.636679 29.934413 45.73062 30.083153 45.789333 C 30.235807 45.848046 30.478488 45.941987 30.631142 45.996786 C 30.783796 46.055499 31.026476 46.145525 31.17913 46.19641 C 31.331784 46.251209 31.574465 46.337321 31.727119 46.39212 C 31.875859 46.443005 32.118539 46.525203 32.271193 46.576088 C 32.423847 46.623058 32.666528 46.701342 32.819182 46.748313 C 32.971836 46.799197 33.214517 46.873567 33.367171 46.916624 C 33.519825 46.963594 33.762505 47.03405 33.911245 47.077106 C 34.063899 47.120162 34.30658 47.186704 34.459234 47.22976 C 34.611888 47.268902 34.854568 47.331529 35.007222 47.370671 C 35.159876 47.409813 35.402557 47.468526 35.555211 47.503754 C 35.703951 47.538982 35.950546 47.597695 36.099285 47.629009 C 36.251939 47.664237 36.49462 47.715121 36.647274 47.746435 C 36.799928 47.777749 37.042609 47.828633 37.195262 47.856033 C 37.347916 47.883432 37.590597 47.930402 37.743251 47.953888 C 37.891991 47.981287 38.138586 48.020429 38.287325 48.047829 C 38.439979 48.071314 38.68266 48.106542 38.835314 48.130027 C 38.987968 48.149598 39.230649 48.184826 39.383303 48.200483 C 39.535957 48.220054 39.778637 48.251367 39.931291 48.267024 C 40.080031 48.282681 40.326626 48.31008 40.475366 48.321823 C 40.62802 48.33748 40.8707 48.357051 41.023354 48.368793 C 41.176008 48.380536 41.418689 48.400107 41.571343 48.407935 C 41.723997 48.415764 41.966678 48.431421 42.119331 48.435335 C 42.268071 48.443163 42.514666 48.454906 42.663406 48.45882 C 42.81606 48.462734 43.058741 48.466648 43.211394 48.470563 C 43.364048 48.470563 43.606729 48.470563 43.759383 48.470563 C 43.912037 48.470563 44.154718 48.470563 44.307372 48.466648 C 44.456111 48.462734 44.702706 48.454906 44.851446 48.450992 C 45.0041 48.447077 45.246781 48.435335 45.399435 48.427506 C 45.552089 48.419678 45.794769 48.404021 45.947423 48.392279 C 46.100077 48.38445 46.342758 48.364879 46.495412 48.353137 C 46.644152 48.33748 46.890747 48.317909 47.039486 48.302252 C 47.19214 48.286595 47.434821 48.259196 47.587475 48.243539 C 47.740129 48.223968 47.98281 48.192654 48.135464 48.173083 C 48.288117 48.153512 48.530798 48.118284 48.683452 48.094799 C 48.832192 48.075228 49.078787 48.036086 49.227527 48.012601 C 49.38018 47.985201 49.622861 47.942145 49.775515 47.914746 C 49.928169 47.887346 50.17085 47.84429 50.323504 47.812976 C 50.476158 47.781663 50.718838 47.734692 50.871492 47.703379 C 51.020232 47.668151 51.266827 47.617266 51.415567 47.582038 C 51.568221 47.54681 51.810901 47.488097 51.963555 47.45287 C 52.116209 47.413728 52.35889 47.355014 52.511544 47.315872 C 52.664198 47.27673 52.906879 47.210189 53.059533 47.167133 C 53.208272 47.127991 53.450953 47.057535 53.603607 47.014479 C 53.756261 46.971422 53.998942 46.897053 54.151596 46.850082 C 54.304249 46.807026 54.54693 46.728742 54.699584 46.681771 C 54.852238 46.630887 55.094919 46.552603 55.247573 46.501718 C 55.396312 46.450833 55.638993 46.368635 55.791647 46.313836 C 55.944301 46.262951 56.186982 46.172925 56.339636 46.118126 C 56.49229 46.063327 56.73497 45.9733 56.887624 45.914587 C 57.040278 45.859788 57.282959 45.765847 57.431699 45.70322 C 57.584353 45.644507 57.827033 45.546652 57.979687 45.484025 C 58.132341 45.425312 58.375022 45.323542 58.527676 45.260915 C 58.68033 45.194374 58.923011 45.092604 59.075665 45.026063 C 59.224404 44.959521 59.470999 44.849924 59.619739 44.783382 C 59.772393 44.712927 60.015074 44.603329 60.167728 44.532873 C 60.320382 44.462417 60.563062 44.348906 60.715716 44.274536 C 60.86837 44.20408 61.111051 44.086654 61.263705 44.012284 C 61.412445 43.937914 61.659039 43.816574 61.807779 43.742204 C 61.960433 43.66392 62.203114 43.542579 62.355768 43.464295 C 62.508422 43.386011 62.751102 43.256843 62.903756 43.178558 C 63.05641 43.09636 63.299091 42.967191 63.451745 42.884993 C 63.600485 42.802795 63.84708 42.669712 63.995819 42.587514 C 64.148473 42.501401 64.391154 42.368318 64.543808 42.282206 C 64.696462 42.196093 64.939143 42.055182 65.091797 41.969069 C 65.244451 41.882957 65.487131 41.742045 65.639785 41.652019 C 65.788525 41.561992 66.03512 41.417167 66.18386 41.32714 C 66.336514 41.237113 66.579194 41.088373 66.731848 40.994432 C 66.884502 40.904406 67.127183 40.751752 67.279837 40.657811 C 67.432491 40.56387 67.675171 40.411216 67.827825 40.317275 C 67.976565 40.21942 68.22316 40.066766 68.3719 39.968911 C 68.524554 39.871056 68.767234 39.714488 68.919888 39.612718 C 69.072542 39.514863 69.315223 39.354381 69.467877 39.256526 C 69.620531 39.154756 69.863212 38.99036 70.015866 38.888591 C 70.164605 38.786821 70.4112 38.622425 70.55994 38.520655 C 70.712594 38.418886 70.955275 38.250575 71.107929 38.144892 C 71.260583 38.039208 71.503263 37.870897 71.655917 37.765214 C 71.808571 37.65953 72.051252 37.487305 72.203906 37.381622 C 72.352646 37.272024 72.59924 37.099799 72.74798 36.990201 C 72.900634 36.884518 73.143315 36.708379 73.295969 36.598781 C 73.448623 36.489183 73.691303 36.313044 73.843957 36.199532 C 73.996611 36.089934 74.239292 35.909881 74.391946 35.800283 C 74.540686 35.686771 74.787281 35.506718 74.93602 35.393206 C 75.088674 35.279694 75.331355 35.095727 75.484009 34.982215 C 75.636663 34.868703 75.879344 34.684735 76.031998 34.567309 C 76.184652 34.453797 76.427332 34.269829 76.579986 34.152403 C 76.728726 34.034977 76.971407 33.847095 77.124061 33.729669 C 77.276715 33.616157 77.519395 33.424361 77.672049 33.306935 C 77.824703 33.189509 78.067384 33.001627 78.220038 32.880287 C 78.372692 32.762861 78.615372 32.571065 78.764112 32.453639 C 78.916766 32.332298 79.159447 32.140502 79.312101 32.019162 C 79.464755 31.897822 79.707435 31.706026 79.860089 31.584685 C 80.012743 31.463345 80.255424 31.271549 80.408078 31.146294 C 80.560732 31.024954 80.803413 30.829244 80.952152 30.707904 C 81.104806 30.586563 81.347487 30.390853 81.500141 30.269513 C 81.652795 30.144258 81.895476 29.948548 82.04813 29.823293 C 82.200784 29.701953 82.443464 29.502329 82.596118 29.380988 C 82.744858 29.255734 82.991453 29.056109 83.140193 28.934769 C 83.292847 28.809514 83.535527 28.60989 83.688181 28.484635 C 83.840835 28.363295 84.083516 28.163671 84.23617 28.038416 C 84.388824 27.913162 84.631504 27.713537 84.784158 27.588283 C 84.932898 27.463028 85.179493 27.263404 85.328233 27.138149 C 85.480887 27.012895 85.723567 26.81327 85.876221 26.688016 C 86.028875 26.562761 86.271556 26.359223 86.42421 26.233968 C 86.576864 26.108713 86.819545 25.909089 86.972199 25.783835 C 87.120938 25.65858 87.367533 25.455041 87.516273 25.329787 C 87.668927 25.204532 87.911608 25.004908 88.064262 24.879653 C 88.216916 24.754399 88.459596 24.55086 88.61225 24.425606 C 88.764904 24.300351 89.007585 24.100727 89.160239 23.975472 C 89.308979 23.850218 89.555573 23.650593 89.704313 23.525339 C 89.856967 23.400084 90.099648 23.20046 90.252302 23.075205 C 90.404956 22.949951 90.647636 22.750326 90.80029 22.625072 C 90.952944 22.503731 91.195625 22.304107 91.348279 22.178852 C 91.497019 22.053598 91.743614 21.857888 91.892353 21.732633 C 92.045007 21.607379 92.287688 21.411668 92.440342 21.286414 C 92.592996 21.165073 92.835677 20.965449 92.988331 20.844109 C 93.140985 20.722768 93.383665 20.523144 93.536319 20.401804 C 93.685059 20.280463 93.931654 20.084753 94.080394 19.963413 C 94.233048 19.842072 94.475728 19.646362 94.628382 19.525022 C 94.781036 19.403682 95.023717 19.211885 95.176371 19.090545 C 95.329025 18.969205 95.571705 18.777409 95.724359 18.656068 C 95.873099 18.538642 96.119694 18.346846 96.268434 18.22942 C 96.421088 18.10808 96.663768 17.920198 96.816422 17.798858 C 96.969076 17.681432 97.211757 17.49355 97.364411 17.376124 C 97.517065 17.258698 97.759746 17.070816 97.9124 16.95339 C 98.061139 16.839878 98.307734 16.651996 98.456474 16.538484 C 98.609128 16.421058 98.851809 16.23709 99.004463 16.123578 C 99.157117 16.010066 99.399797 15.826099 99.552451 15.712587 C 99.705105 15.599075 99.947786 15.419022 100.10044 15.30551 C 100.24918 15.191998 100.49186 15.015858 100.644514 14.902347 C 100.797168 14.792749 101.039849 14.612695 101.192503 14.503098 C 101.345157 14.3935 101.587837 14.217361 101.740491 14.111677 C 101.893145 14.00208 102.135826 13.82594 102.284566 13.720257 C 102.43722 13.610659 102.6799 13.442348 102.832554 13.332751 C 102.985208 13.227067 103.227889 13.058756 103.380543 12.953073 C 103.533197 12.847389 103.775878 12.682993 103.928532 12.577309 C 104.077271 12.47554 104.323866 12.307229 104.472606 12.20546 C 104.62526 12.10369 104.867941 11.943208 105.020595 11.841439 C 105.173249 11.739669 105.415929 11.579187 105.568583 11.481332 C 105.721237 11.379563 105.963918 11.222995 106.116572 11.125139 C 106.265312 11.027284 106.511906 10.870716 106.660646 10.776775 C 106.8133 10.67892 107.055981 10.526266 107.208635 10.432325 C 107.361289 10.338384 107.603969 10.18573 107.756623 10.095704 C 107.909277 10.001763 108.151958 9.853023 108.304612 9.762996 C 108.453352 9.67297 108.699947 9.528144 108.848686 9.438117 C 109.00134 9.348091 109.244021 9.203265 109.396675 9.117153 C 109.549329 9.03104 109.79201 8.890129 109.944664 8.804016 C 110.097318 8.717904 110.339998 8.580907 110.492652 8.498708 C 110.641392 8.412596 110.887987 8.279513 111.036727 8.197315 C 111.189381 8.115116 111.432061 7.985948 111.584715 7.903749 C 111.737369 7.821551 111.98005 7.696296 112.132704 7.618012 C 112.285358 7.539728 112.528039 7.414474 112.680692 7.33619 C 112.829432 7.26182 113.076027 7.140479 113.224767 7.06611 C 113.377421 6.99174 113.620102 6.870399 113.772755 6.799944 C 113.925409 6.725574 114.16809 6.612062 114.320744 6.541606 C 114.473398 6.47115 114.716079 6.357639 114.868733 6.291097 C 115.017472 6.220641 115.264067 6.111044 115.412807 6.044502 C 115.565461 5.981875 115.808142 5.876191 115.960796 5.80965 C 116.11345 5.747023 116.35613 5.645253 116.508784 5.582626 C 116.661438 5.519999 116.904119 5.422144 117.056773 5.363431 C 117.205513 5.300803 117.452108 5.206862 117.600847 5.148149 C 117.753501 5.089436 117.996182 4.99941 118.148836 4.944611 C 118.30149 4.889812 118.544171 4.799785 118.696824 4.748901 C 118.849478 4.694102 119.092159 4.607989 119.244813 4.557105 C 119.393553 4.50622 119.640148 4.427936 119.788887 4.377051 C 119.941541 4.330081 120.184222 4.251797 120.336876 4.204826 C 120.48953 4.157856 120.732211 4.083486 120.884865 4.04043 C 121.037519 3.997373 121.280199 3.926918 121.432853 3.883861 C 121.581593 3.840805 121.824274 3.778178 121.976928 3.739036 C 122.129582 3.69598 122.372262 3.637267 122.524916 3.598125 C 122.67757 3.558982 122.920251 3.504184 123.072905 3.468956 C 123.225559 3.433728 123.46824 3.378929 123.620894 3.343701 C 123.769633 3.312388 124.012314 3.261503 124.164968 3.230189 C 124.317622 3.20279 124.560303 3.155819 124.712957 3.12842 C 124.86561 3.097106 125.108291 3.057964 125.260945 3.030565 C 125.413599 3.003165 125.65628 2.967938 125.80502 2.944452 C 125.957673 2.920967 126.200354 2.885739 126.353008 2.866168 C 126.505662 2.842683 126.748343 2.811369 126.900997 2.795713 C 127.053651 2.776142 127.296331 2.748742 127.448985 2.733085 C 127.597725 2.717429 127.84432 2.693943 127.99306 2.682201 C 128.145714 2.666544 128.388394 2.646973 128.541048 2.639144 C 128.693702 2.627402 128.936383 2.611745 129.089037 2.603917 C 129.241691 2.596088 129.484372 2.584346 129.637026 2.576517 C 129.785765 2.572603 130.03236 2.564775 130.1811 2.56086 C 130.333754 2.556946 130.576435 2.553032 130.729089 2.553032 C 130.881742 2.549118 131.124423 2.553032 131.277077 2.553032 C 131.429731 2.553032 131.672412 2.556946 131.825066 2.56086 C 131.973805 2.564775 132.2204 2.576517 132.36914 2.580431 C 132.521794 2.58826 132.764475 2.600002 132.917129 2.607831 C 133.069783 2.619573 133.312463 2.63523 133.465117 2.646973 C 133.617771 2.654801 133.860452 2.678287 134.013106 2.690029 C 134.161846 2.705686 134.408441 2.729171 134.55718 2.744828 C 134.709834 2.760485 134.952515 2.787884 135.105169 2.807455 C 135.257823 2.827026 135.500504 2.85834 135.653158 2.877911 C 135.805812 2.901396 136.048492 2.936624 136.201146 2.960109 C 136.349886 2.983594 136.596481 3.022736 136.745221 3.050136 C 136.897875 3.073621 137.140555 3.120592 137.293209 3.147991 C 137.445863 3.17539 137.688544 3.222361 137.841198 3.253675 C 137.993852 3.284988 138.236532 3.335873 138.389186 3.367186 C 138.537926 3.402414 138.784521 3.457213 138.933261 3.492441 C 139.085915 3.527669 139.328595 3.586382 139.481249 3.625524 C 139.633903 3.664666 139.876584 3.727293 140.029238 3.766435 C 140.181892 3.805577 140.424573 3.872119 140.577227 3.915175 C 140.725966 3.958231 140.972561 4.028687 141.121301 4.071743 C 141.273955 4.118714 141.516636 4.193084 141.66929 4.240054 C 141.821944 4.287024 142.064624 4.365309 142.217278 4.412279 C 142.369932 4.463164 142.612613 4.545362 142.765267 4.596247 C 142.914007 4.647131 143.160601 4.733244 143.309341 4.784128 C 143.461995 4.838927 143.704676 4.928954 143.85733 4.983753 C 144.009984 5.042466 144.252664 5.132493 144.405318 5.191206 C 144.557972 5.249919 144.800653 5.34386 144.953307 5.406487 C 145.102047 5.4652 145.344727 5.563055 145.497381 5.625682 C 145.650035 5.68831 145.892716 5.793993 146.04537 5.85662 C 146.198024 5.923162 146.440705 6.028845 146.593359 6.095387 C 146.746013 6.161928 146.988693 6.271526 147.137433 6.338068 C 147.290087 6.408523 147.532768 6.522035 147.685422 6.592491 C 147.838076 6.662946 148.080756 6.780373 148.23341 6.850828 C 148.386064 6.925198 148.628745 7.042624 148.781399 7.116994 C 148.934053 7.195278 149.176733 7.316619 149.325473 7.390989 C 149.478127 7.469273 149.720808 7.594527 149.873462 7.672811 C 150.026116 7.751095 150.268796 7.880264 150.42145 7.962462 C 150.574104 8.040746 150.816785 8.173829 150.969439 8.256028 C 151.118179 8.338226 151.364774 8.475223 151.513513 8.557421 C 151.666167 8.643534 151.908848 8.780531 152.061502 8.866644 C 152.214156 8.952756 152.456837 9.093667 152.609491 9.17978 C 152.762145 9.269807 153.004825 9.410718 153.157479 9.500745 C 153.306219 9.590771 153.552814 9.735597 153.701554 9.829538 C 153.854208 9.919564 154.096888 10.068304 154.249542 10.162245 C 154.402196 10.256186 154.644877 10.404926 154.797531 10.498867 C 154.950185 10.596722 155.192865 10.749376 155.345519 10.847231 C 155.494259 10.941172 155.740854 11.09774 155.889594 11.195595 C 156.042248 11.29345 156.284928 11.453933 156.437582 11.551788 C 156.590236 11.653557 156.832917 11.814039 156.985571 11.911894 C 157.138225 12.013664 157.380906 12.17806 157.53356 12.27983 C 157.682299 12.381599 157.928894 12.54991 158.077634 12.651679 C 158.230288 12.757363 158.472969 12.925673 158.625623 13.027443 C 158.778277 13.133126 159.020957 13.305351 159.173611 13.411035 C 159.326265 13.516718 159.568946 13.688943 159.7216 13.798541 C 159.87034 13.904224 160.116934 14.080364 160.265674 14.189961 C 160.418328 14.295645 160.661009 14.471784 160.813663 14.585296 C 160.966317 14.694894 161.208997 14.871033 161.361651 14.984545 C 161.514305 15.094143 161.756986 15.274196 161.90964 15.387708 C 162.05838 15.50122 162.304975 15.681273 162.453714 15.794785 C 162.606368 15.908297 162.849049 16.092265 163.001703 16.205777 C 163.154357 16.319289 163.397038 16.503256 163.549692 16.620682 C 163.702346 16.738108 163.945026 16.922076 164.09768 17.039502 C 164.24642 17.156928 164.493015 17.34481 164.641755 17.462236 C 164.794409 17.579662 165.037089 17.767544 165.189743 17.88497 C 165.342397 18.002396 165.585078 18.194192 165.737732 18.311619 C 165.890386 18.432959 166.133066 18.624755 166.28572 18.742181 C 166.43446 18.863521 166.681055 19.055317 166.829795 19.176658 C 166.982449 19.297998 167.225129 19.489794 167.377783 19.611134 C 167.530437 19.732475 167.773118 19.928185 167.925772 20.049525 C 168.078426 20.170866 168.321107 20.366576 168.473761 20.49183 C 168.6225 20.613171 168.865181 20.808881 169.017835 20.934135 C 169.170489 21.055476 169.41317 21.251186 169.565824 21.37644 C 169.718478 21.497781 169.961158 21.697405 170.113812 21.82266 C 170.266466 21.944 170.509147 22.143625 170.657887 22.268879 C 170.810541 22.394134 171.053221 22.593758 171.205875 22.715098 C 171.358529 22.840353 171.60121 23.039977 171.753864 23.165232 C 171.906518 23.290486 172.149198 23.490111 172.301852 23.615365 C 172.450592 23.74062 172.697187 23.940244 172.845927 24.065499 C 172.998581 24.190753 173.241261 24.394292 173.393915 24.519547 C 173.546569 24.644801 173.78925 24.844425 173.941904 24.96968 C 174.094558 25.094935 174.337239 25.294559 174.489893 25.419814 C 174.638632 25.545068 174.885227 25.748607 175.033967 25.873861 C 175.186621 25.999116 175.429302 26.19874 175.581956 26.323995 C 175.73461 26.449249 175.97729 26.652788 176.129944 26.778042 C 176.282598 26.903297 176.525279 27.102921 176.677933 27.228176 C 176.826673 27.35343 177.073267 27.553055 177.222007 27.678309 C 177.374661 27.803564 177.617342 28.003188 177.769996 28.128443 C 177.92265 28.253697 178.16533 28.453322 178.317984 28.574662 C 178.470638 28.699917 178.713319 28.899541 178.865973 29.024796 C 179.014713 29.146136 179.261308 29.34576 179.410047 29.467101 C 179.562701 29.592355 179.805382 29.79198 179.958036 29.91332 C 180.11069 30.03466 180.353371 30.234285 180.506025 30.355625 C 180.658679 30.476965 180.901359 30.67659 181.054013 30.79793 C 181.202753 30.919271 181.449348 31.114981 181.598088 31.236321 C 181.750742 31.357661 181.993422 31.553372 182.146076 31.670798 C 182.29873 31.792138 182.541411 31.987848 182.694065 32.105274 C 182.846719 32.226615 183.0894 32.418411 183.242053 32.539751 C 183.390793 32.657177 183.637388 32.848973 183.786128 32.966399 C 183.938782 33.083826 184.181463 33.275622 184.334116 33.393048 C 184.48677 33.510474 184.729451 33.698356 184.882105 33.815782 C 185.034759 33.933208 185.27744 34.12109 185.430094 34.234602 C 185.578833 34.352028 185.825428 34.535995 185.974168 34.653421 C 186.126822 34.766933 186.369503 34.950901 186.522157 35.064413 C 186.674811 35.177925 186.917491 35.361892 187.070145 35.475404 C 187.222799 35.585002 187.46548 35.76897 187.618134 35.878567 C 187.766874 35.992079 188.013469 36.168219 188.162208 36.28173 C 188.314862 36.391328 188.557543 36.567467 188.710197 36.677065 C 188.862851 36.786663 189.105532 36.962802 189.258185 37.068486 C 189.410839 37.178083 189.65352 37.350308 189.806174 37.459906 C 189.954914 37.565589 190.197595 37.737814 190.350248 37.843498 C 190.502902 37.949182 190.745583 38.117492 190.898237 38.219262 C 191.050891 38.324945 191.293572 38.493256 191.446226 38.595025 C 191.59888 38.696795 191.84156 38.861191 191.994214 38.96296 C 192.142954 39.06473 192.385635 39.225212 192.538289 39.326981 C 192.690943 39.428751 192.933623 39.585319 193.086277 39.687088 C 193.238931 39.784943 193.481612 39.941511 193.634266 40.039367 C 193.78692 40.137222 194.029601 40.289876 194.17834 40.383817 C 194.330994 40.481672 194.573675 40.634326 194.726329 40.728267 C 194.878983 40.822207 195.121664 40.970947 195.274318 41.060974 C 195.426971 41.154915 195.669652 41.29974 195.822306 41.393681 C 195.971046 41.483708 196.217641 41.624619 196.366381 41.714646 C 196.519034 41.804673 196.761715 41.945584 196.914369 42.031697 C 197.067023 42.117809 197.309704 42.25872 197.462358 42.344833 C 197.615012 42.427031 197.857692 42.564028 198.010346 42.646227 C 198.159086 42.732339 198.405681 42.861508 198.554421 42.943706 C 198.707075 43.025904 198.949755 43.155073 199.102409 43.233357 C 199.255063 43.315556 199.497744 43.44081 199.650398 43.519094 C 199.803052 43.597378 200.045733 43.718719 200.198387 43.797003 C 200.347126 43.871373 200.593721 43.992713 200.742461 44.067083 C 200.895115 44.141453 201.137796 44.254965 201.29045 44.329335 C 201.443103 44.39979 201.685784 44.513302 201.838438 44.583758 C 201.991092 44.654213 202.233773 44.763811 202.386427 44.830353 C 202.535166 44.900808 202.781761 45.006492 202.930501 45.073033 C 203.083155 45.139575 203.325836 45.241344 203.47849 45.303971 C 203.631144 45.366599 203.873824 45.468368 204.026478 45.530995 C 204.179132 45.589708 204.421813 45.687563 204.574467 45.746276 C 204.723207 45.80499 204.969802 45.89893 205.118541 45.957644 C 205.271195 46.012442 205.513876 46.102469 205.66653 46.157268 C 205.819184 46.212067 206.061865 46.298179 206.214519 46.352978 C 206.367172 46.403863 206.609853 46.486061 206.762507 46.536946 C 206.911247 46.58783 207.157842 46.666114 207.306582 46.716999 C 207.459236 46.76397 207.701916 46.838339 207.85457 46.88531 C 208.007224 46.93228 208.249905 47.002736 208.402559 47.045792 C 208.555213 47.088849 208.797893 47.159304 208.950547 47.198446 C 209.099287 47.241503 209.345882 47.30413 209.494622 47.343272 C 209.647276 47.382414 209.889956 47.441127 210.04261 47.480269 C 210.195264 47.515497 210.437945 47.570296 210.590599 47.605524 C 210.743253 47.640751 210.985934 47.691636 211.138588 47.72295 C 211.287327 47.758177 211.533922 47.805148 211.682662 47.836462 C 211.835316 47.863861 212.077997 47.910831 212.230651 47.934317 C 212.383305 47.961716 212.625985 48.004772 212.778639 48.028258 C 212.931293 48.051743 213.173974 48.090885 213.326628 48.11437 C 213.475368 48.133941 213.718048 48.169169 213.870702 48.18874 C 214.023356 48.208311 214.266037 48.23571 214.418691 48.255281 C 214.571345 48.270938 214.814025 48.298338 214.966679 48.313994 C 215.119333 48.325737 215.362014 48.349222 215.510754 48.360965 C 215.663408 48.372708 215.906088 48.392279 216.058742 48.400107 C 216.211396 48.41185 216.454077 48.423592 216.606731 48.431421 C 216.759385 48.439249 217.002066 48.450992 217.15472 48.454906 C 217.307374 48.45882 217.550054 48.466648 217.698794 48.466648 C 217.851448 48.470563 218.246783 48.470563 218.246783 48.470563 " transform="matrix(0.997968, 0, 0, -0.997968, 21.395949, 281.008781)"/>
</g>
<path fill="none" stroke-width="0.3985" stroke-linecap="butt" stroke-linejoin="miter" stroke="rgb(0%, 0%, 0%)" stroke-opacity="1" stroke-miterlimit="10" d="M -0.00142102 25.513754 L 214.770969 25.513754 " transform="matrix(0.997968, 0, 0, -0.997968, 21.395949, 281.008781)"/>
<path fill-rule="nonzero" fill="rgb(0%, 0%, 0%)" fill-opacity="1" stroke-width="0.3985" stroke-linecap="butt" stroke-linejoin="miter" stroke="rgb(0%, 0%, 0%)" stroke-opacity="1" stroke-miterlimit="10" d="M 3.17158 0.00180443 L 0.200698 1.763196 L 0.200698 -1.763502 Z M 3.17158 0.00180443 " transform="matrix(0.997968, 0, 0, -0.997968, 235.631741, 255.548676)"/>
<path fill="none" stroke-width="0.3985" stroke-linecap="butt" stroke-linejoin="miter" stroke="rgb(0%, 0%, 0%)" stroke-opacity="1" stroke-miterlimit="10" d="M -0.00142102 0.000970774 L -0.00142102 47.550725 " transform="matrix(0.997968, 0, 0, -0.997968, 21.395949, 281.008781)"/>
<path fill-rule="nonzero" fill="rgb(0%, 0%, 0%)" fill-opacity="1" stroke-width="0.3985" stroke-linecap="butt" stroke-linejoin="miter" stroke="rgb(0%, 0%, 0%)" stroke-opacity="1" stroke-miterlimit="10" d="M 3.175359 0.00142102 L 0.200564 1.762813 L 0.200564 -1.763885 Z M 3.175359 0.00142102 " transform="matrix(0, -0.997968, -0.997968, 0, 21.395949, 233.653281)"/>
<g fill="rgb(0%, 0%, 0%)" fill-opacity="1">
<use xlink:href="#glyph-3-0" x="237.838208" y="263.749926"/>
</g>
<g fill="rgb(0%, 0%, 0%)" fill-opacity="1">
<use xlink:href="#glyph-3-1" x="9.741681" y="232.037502"/>
</g>
<g fill="rgb(0%, 0%, 0%)" fill-opacity="1">
<use xlink:href="#glyph-4-1" x="14.501988" y="233.916675"/>
</g>
<g clip-path="url(#clip-7)">
<path fill="none" stroke-width="0.79701" stroke-linecap="butt" stroke-linejoin="miter" stroke="rgb(0%, 62.745667%, 86.274719%)" stroke-opacity="1" stroke-miterlimit="10" d="M -0.00142102 25.511535 L 0.182547 25.660275 L 0.3626 25.812929 L 0.546568 25.961669 L 0.726621 26.114323 L 0.910589 26.263063 L 1.090642 26.411802 L 1.27461 26.564456 L 1.454663 26.713196 L 1.638631 26.861936 L 1.818684 27.01459 L 1.998737 27.16333 L 2.182705 27.312069 L 2.362758 27.464723 L 2.546726 27.613463 L 2.726779 27.762203 L 2.910747 27.910943 L 3.0908 28.059682 L 3.274768 28.208422 L 3.454821 28.361076 L 3.638789 28.509816 L 3.818842 28.658556 L 4.00281 28.807295 L 4.182863 28.956035 L 4.366831 29.104775 L 4.546884 29.253515 L 4.726938 29.39834 L 4.910905 29.54708 L 5.090959 29.69582 L 5.274926 29.84456 L 5.45498 29.989385 L 5.638947 30.138125 L 5.819001 30.286865 L 6.002968 30.43169 L 6.183022 30.58043 L 6.366989 30.725256 L 6.547043 30.870081 L 6.73101 31.018821 L 7.091117 31.308472 L 7.275085 31.453298 L 7.455138 31.598123 L 7.639106 31.742949 L 7.819159 31.887774 L 8.003127 32.0326 L 8.18318 32.177425 L 8.367148 32.322251 L 8.547201 32.463162 L 8.731169 32.607988 L 8.911222 18.274172 L 9.09519 18.129346 L 9.275243 17.988435 L 9.459211 17.847523 L 9.819318 17.565701 L 10.003285 17.424789 L 10.183339 17.283878 L 10.367306 17.142967 L 10.54736 17.002055 L 10.731327 16.865058 L 10.911381 16.724147 L 11.095348 16.58715 L 11.275402 16.446238 L 11.459369 16.309241 L 11.639423 16.172244 L 11.82339 16.035247 L 12.003444 15.89825 L 12.187411 15.761252 L 12.367465 15.62817 L 12.547518 15.491172 L 12.731486 15.358089 L 12.911539 15.221092 L 13.095507 15.088009 L 13.27556 14.954926 L 13.459528 14.821843 L 13.639581 14.68876 L 13.823549 14.555678 L 14.003602 14.422595 L 14.18757 14.293426 L 14.367623 14.160343 L 14.551591 14.031174 L 14.911697 13.772837 L 15.095665 13.643668 L 15.275718 13.514499 L 15.459686 13.38533 L 15.639739 13.260076 L 15.823707 13.130907 L 16.00376 13.005653 L 16.187728 12.880398 L 16.367781 12.755144 L 16.551749 12.629889 L 16.731802 12.508549 L 16.91577 12.383294 L 17.095823 12.261954 L 17.279791 12.136699 L 17.459844 12.015359 L 17.639898 39.129052 L 17.823865 39.250392 L 18.003919 39.367819 L 18.187886 39.489159 L 18.36794 39.606585 L 18.551907 39.727925 L 18.731961 39.845352 L 18.915928 39.962778 L 19.095982 40.07629 L 19.279949 40.193716 L 19.460003 40.307228 L 19.64397 40.424654 L 20.004077 40.651678 L 20.188045 40.761275 L 20.368098 40.874787 L 20.552066 40.988299 L 20.732119 41.097897 L 20.916087 41.207495 L 21.09614 41.317092 L 21.280108 41.42669 L 21.460161 41.532374 L 21.644129 41.641971 L 21.824182 41.747655 L 22.00815 41.853338 L 22.188203 41.959022 L 22.372171 42.064705 L 22.732278 42.268244 L 22.916245 42.373928 L 23.096299 42.471783 L 23.280266 42.573552 L 23.46032 42.675321 L 23.644287 42.773176 L 23.824341 42.871031 L 24.008308 42.972801 L 24.188362 43.066742 L 24.372329 43.164597 L 24.552383 43.258538 L 24.73635 43.356393 L 24.916404 43.450334 L 25.100371 43.544275 L 25.280425 43.634301 L 25.460478 43.728242 L 25.644446 43.818269 L 25.824499 43.908296 L 26.008467 43.998322 L 26.18852 44.088349 L 26.372488 6.848609 L 26.552541 6.762497 L 26.736509 6.676384 L 26.916562 6.590272 L 27.10053 6.504159 L 27.280583 6.421961 L 27.464551 6.335848 L 27.644604 6.25365 L 27.824657 6.175366 L 28.008625 6.093168 L 28.188678 6.014884 L 28.372646 5.932685 L 28.552699 5.858316 L 28.736667 5.780031 L 28.91672 5.701747 L 29.100688 5.627378 L 29.280741 5.553008 L 29.464709 5.478638 L 29.644762 5.404268 L 29.82873 5.333812 L 30.008783 5.263357 L 30.192751 5.192901 L 30.552858 5.051989 L 30.736825 4.985448 L 30.916879 4.918907 L 31.100846 4.852365 L 31.2809 4.789738 L 31.464867 4.723196 L 31.644921 4.660569 L 31.828888 4.597942 L 32.008942 4.535315 L 32.192909 4.476601 L 32.372963 4.413974 L 32.55693 4.355261 L 32.736984 4.300462 L 32.920951 4.241749 L 33.281058 4.132151 L 33.465026 4.077353 L 33.645079 4.022554 L 33.829047 3.971669 L 34.0091 3.91687 L 34.193068 3.8699 L 34.373121 3.819015 L 34.557089 3.76813 L 34.737142 3.72116 L 34.92111 3.67419 L 35.101163 47.395852 L 35.285131 47.438908 L 35.645238 47.52502 L 35.829205 47.568077 L 36.009259 47.611133 L 36.193226 47.650275 L 36.37328 47.689417 L 36.557247 47.728559 L 36.737301 47.763787 L 36.921268 47.802929 L 37.101322 47.838157 L 37.285289 47.873385 L 37.465343 47.904698 L 37.64931 47.939926 L 37.829364 47.97124 L 38.013331 48.002553 L 38.193385 48.029953 L 38.373438 48.061266 L 38.557406 48.088666 L 38.737459 48.116065 L 38.921427 48.13955 L 39.10148 48.16695 L 39.285448 48.190435 L 39.465501 48.21392 L 39.649469 48.233491 L 39.829522 48.256977 L 40.01349 48.276548 L 40.193543 48.296119 L 40.377511 48.311775 L 40.557564 48.331346 L 40.737617 48.347003 L 40.921585 48.36266 L 41.101638 48.374403 L 41.285606 48.39006 L 41.465659 48.401802 L 41.649627 48.413545 L 41.82968 48.421373 L 42.013648 48.433116 L 42.193701 48.440944 L 42.377669 48.448773 L 42.557722 48.452687 L 42.74169 48.460515 L 42.921743 48.464429 L 43.105711 48.468344 L 43.285764 48.468344 L 43.465818 48.472258 L 43.649785 48.472258 L 43.829839 2.550813 L 44.013806 2.554727 L 44.19386 2.554727 L 44.377827 2.558641 L 44.557881 2.562556 L 44.741848 2.570384 L 44.921902 2.574298 L 45.105869 2.582127 L 45.285923 2.589955 L 45.46989 2.601698 L 45.649944 2.609526 L 45.833911 2.621269 L 46.013965 2.633011 L 46.194018 2.648668 L 46.377986 2.660411 L 46.558039 2.676067 L 46.742007 2.691724 L 46.92206 2.711295 L 47.106028 2.726952 L 47.286081 2.746523 L 47.470049 2.766094 L 47.650102 2.789579 L 47.83407 2.80915 L 48.014123 2.832636 L 48.198091 2.856121 L 48.378144 2.88352 L 48.558198 2.907006 L 48.742165 2.934405 L 48.922219 2.961804 L 49.106186 2.993118 L 49.28624 3.020517 L 49.470207 3.051831 L 49.650261 3.083145 L 49.834228 3.118373 L 50.014282 3.149686 L 50.198249 3.184914 L 50.378303 3.220142 L 50.56227 3.259284 L 50.742324 3.294512 L 50.926291 3.333654 L 51.286398 3.411938 L 51.470366 3.454994 L 51.650419 3.49805 L 51.834387 3.541107 L 52.01444 3.584163 L 52.198408 3.627219 L 52.378461 3.67419 L 52.562429 47.301911 L 52.742482 47.25494 L 52.92645 47.204056 L 53.106503 47.157085 L 53.290471 47.106201 L 53.470524 47.051402 L 53.650577 47.000517 L 53.834545 46.945718 L 54.014598 46.890919 L 54.198566 46.83612 L 54.378619 46.781322 L 54.562587 46.722608 L 54.74264 46.66781 L 54.926608 46.609097 L 55.106661 46.546469 L 55.290629 46.487756 L 55.470682 46.425129 L 55.65465 46.362502 L 55.834703 46.299874 L 56.018671 46.237247 L 56.378778 46.104164 L 56.562745 46.037623 L 56.742799 45.971081 L 56.926766 45.900626 L 57.10682 45.83017 L 57.290787 45.759714 L 57.470841 45.689259 L 57.654808 45.618803 L 57.834862 45.544433 L 58.018829 45.470063 L 58.198883 45.395693 L 58.38285 45.321323 L 58.562904 45.243039 L 58.746871 45.168669 L 58.926925 45.090385 L 59.106978 45.008187 L 59.290946 44.929903 L 59.470999 44.847705 L 59.654967 44.769421 L 59.83502 44.687222 L 60.018988 44.60111 L 60.199041 44.518911 L 60.383009 44.432799 L 60.563062 44.346686 L 60.74703 44.260574 L 60.927083 44.174461 L 61.111051 44.088349 L 61.291104 7.024748 L 61.471158 7.114775 L 61.655125 7.204802 L 61.835179 7.294829 L 62.019146 7.388769 L 62.1992 7.478796 L 62.383167 7.572737 L 62.563221 7.666678 L 62.747188 7.764533 L 62.927242 7.858474 L 63.111209 7.956329 L 63.291263 8.054184 L 63.47523 8.152039 L 63.655284 8.249894 L 63.839251 8.347749 L 64.199358 8.551288 L 64.383326 8.653057 L 64.563379 8.754827 L 64.747347 8.856596 L 64.9274 8.96228 L 65.111368 9.064049 L 65.291421 9.169732 L 65.475389 9.275416 L 65.655442 9.381099 L 65.83941 9.490697 L 66.019463 9.596381 L 66.203431 9.705978 L 66.383484 9.815576 L 66.567452 9.925174 L 66.747505 10.038686 L 66.927558 10.148283 L 67.111526 10.261795 L 67.291579 10.371393 L 67.475547 10.484905 L 67.6556 10.598417 L 67.839568 10.715843 L 68.019621 10.829355 L 68.203589 10.946781 L 68.383642 11.060293 L 68.56761 11.177719 L 68.747663 11.295145 L 68.931631 11.416486 L 69.111684 11.533912 L 69.291738 11.655252 L 69.475705 11.772678 L 69.655759 11.894019 L 69.839726 12.015359 L 70.01978 38.886371 L 70.203747 38.765031 L 70.383801 38.639777 L 70.567768 38.518436 L 70.747822 38.393182 L 70.931789 38.267927 L 71.111843 38.142673 L 71.29581 38.017418 L 71.475864 37.892164 L 71.659831 37.762995 L 71.839885 37.63774 L 72.019938 37.508572 L 72.203906 37.379403 L 72.383959 37.250234 L 72.567927 37.121065 L 72.74798 36.991897 L 72.931948 36.862728 L 73.112001 36.729645 L 73.295969 36.600476 L 73.476022 36.467393 L 73.65999 36.33431 L 73.840043 36.201227 L 74.024011 36.068144 L 74.384118 35.801978 L 74.568085 35.664981 L 74.748139 35.531898 L 74.932106 35.394901 L 75.11216 35.261818 L 75.296127 35.124821 L 75.476181 34.987824 L 75.660148 34.850827 L 75.840202 34.71383 L 76.024169 34.576833 L 76.204223 34.435921 L 76.38819 34.298924 L 76.568244 34.158013 L 76.752211 34.021016 L 77.112318 33.739193 L 77.296286 33.598281 L 77.476339 33.45737 L 77.660307 33.316459 L 77.84036 33.175547 L 78.024328 33.034636 L 78.204381 32.893725 L 78.388349 32.748899 L 78.568402 32.607988 L 78.75237 18.559909 L 78.932423 18.704734 L 79.116391 18.845645 L 79.296444 18.990471 L 79.480412 19.135297 L 79.840518 19.424948 L 80.024486 19.569773 L 80.204539 19.714599 L 80.388507 19.859424 L 80.56856 20.00425 L 80.752528 20.15299 L 80.932581 20.297815 L 81.116549 20.442641 L 81.296602 20.591381 L 81.48057 20.736206 L 81.660623 20.884946 L 81.844591 21.033686 L 82.024644 21.178511 L 82.204698 21.327251 L 82.388665 21.475991 L 82.568719 21.62473 L 82.752686 21.769556 L 82.93274 21.918296 L 83.116707 22.067036 L 83.296761 22.215775 L 83.480728 22.364515 L 83.660782 22.513255 L 83.844749 22.661995 L 84.024803 22.814649 L 84.20877 22.963388 L 84.388824 23.112128 L 84.572791 23.260868 L 84.752845 23.409608 L 84.932898 23.562262 L 85.116866 23.711001 L 85.296919 23.859741 L 85.480887 24.008481 L 85.66094 24.161135 L 85.844908 24.309875 L 86.024961 24.458614 L 86.208929 24.611268 L 86.388982 24.760008 L 86.57295 24.908748 L 86.753003 25.061402 L 86.936971 25.210142 L 87.117024 25.362796 L 87.300992 25.511535 L 87.481045 25.362796 L 87.661099 25.210142 L 87.845066 25.061402 L 88.02512 24.908748 L 88.209087 24.760008 L 88.389141 24.611268 L 88.573108 24.458614 L 88.753162 24.309875 L 88.937129 24.161135 L 89.117183 24.008481 L 89.30115 23.859741 L 89.481204 23.711001 L 89.665171 23.562262 L 89.845225 23.409608 L 90.025278 23.260868 L 90.209246 23.112128 L 90.389299 22.963388 L 90.573267 22.814649 L 90.75332 22.661995 L 90.937288 22.513255 L 91.117341 22.364515 L 91.301309 22.215775 L 91.481362 22.067036 L 91.66533 21.918296 L 91.845383 21.769556 L 92.029351 21.62473 L 92.209404 21.475991 L 92.393372 21.327251 L 92.573425 21.178511 L 92.753478 21.033686 L 92.937446 20.884946 L 93.117499 20.736206 L 93.301467 20.591381 L 93.48152 20.442641 L 93.665488 20.297815 L 93.845541 20.15299 L 94.029509 20.00425 L 94.209562 19.859424 L 94.39353 19.714599 L 94.573583 19.569773 L 94.757551 19.424948 L 95.117658 19.135297 L 95.301625 18.990471 L 95.481679 18.845645 L 95.665646 18.704734 L 95.8457 18.559909 L 96.029667 18.415083 L 96.209721 32.748899 L 96.393688 32.893725 L 96.573742 33.034636 L 96.757709 33.175547 L 96.937763 33.316459 L 97.12173 33.45737 L 97.301784 33.598281 L 97.485751 33.739193 L 97.845858 34.021016 L 98.029826 34.158013 L 98.209879 34.298924 L 98.393847 34.435921 L 98.5739 34.576833 L 98.757868 34.71383 L 98.937921 34.850827 L 99.121889 34.987824 L 99.301942 35.124821 L 99.48591 35.261818 L 99.665963 35.394901 L 99.849931 35.531898 L 100.029984 35.664981 L 100.213952 35.801978 L 100.574059 36.068144 L 100.758026 36.201227 L 100.93808 36.33431 L 101.122047 36.467393 L 101.302101 36.600476 L 101.486068 36.729645 L 101.666122 36.862728 L 101.850089 36.991897 L 102.030143 37.121065 L 102.21411 37.250234 L 102.394164 37.379403 L 102.578131 37.508572 L 102.758185 37.63774 L 102.938238 37.762995 L 103.122206 37.892164 L 103.302259 38.017418 L 103.486227 38.142673 L 103.66628 38.267927 L 103.850248 38.393182 L 104.030301 38.518436 L 104.214269 38.639777 L 104.394322 38.765031 L 104.57829 38.886371 L 104.758343 39.007712 L 104.942311 11.894019 L 105.122364 11.772678 L 105.306332 11.655252 L 105.486385 11.533912 L 105.666438 11.416486 L 105.850406 11.295145 L 106.030459 11.177719 L 106.214427 11.060293 L 106.39448 10.946781 L 106.578448 10.829355 L 106.758501 10.715843 L 106.942469 10.598417 L 107.122522 10.484905 L 107.30649 10.371393 L 107.486543 10.261795 L 107.670511 10.148283 L 107.850564 10.038686 L 108.034532 9.925174 L 108.394639 9.705978 L 108.578606 9.596381 L 108.75866 9.490697 L 108.942627 9.381099 L 109.122681 9.275416 L 109.306648 9.169732 L 109.486702 9.064049 L 109.670669 8.96228 L 109.850723 8.856596 L 110.03469 8.754827 L 110.214744 8.653057 L 110.398711 8.551288 L 110.758818 8.347749 L 110.942786 8.249894 L 111.122839 8.152039 L 111.306807 8.054184 L 111.48686 7.956329 L 111.670828 7.858474 L 111.850881 7.764533 L 112.034849 7.666678 L 112.214902 7.572737 L 112.39887 7.478796 L 112.578923 7.388769 L 112.762891 7.294829 L 112.942944 7.204802 L 113.126912 7.114775 L 113.487019 6.934722 L 113.670986 44.174461 L 113.85104 44.260574 L 114.035007 44.346686 L 114.215061 44.432799 L 114.399028 44.518911 L 114.579082 44.60111 L 114.763049 44.687222 L 114.943103 44.769421 L 115.12707 44.847705 L 115.307124 44.929903 L 115.491091 45.008187 L 115.671145 45.090385 L 115.851198 45.168669 L 116.035166 45.243039 L 116.215219 45.321323 L 116.399187 45.395693 L 116.57924 45.470063 L 116.763208 45.544433 L 116.943261 45.618803 L 117.127229 45.689259 L 117.307282 45.759714 L 117.49125 45.83017 L 117.671303 45.900626 L 117.855271 45.971081 L 118.035324 46.037623 L 118.219292 46.104164 L 118.579398 46.237247 L 118.763366 46.299874 L 118.943419 46.362502 L 119.127387 46.425129 L 119.30744 46.487756 L 119.491408 46.546469 L 119.671461 46.609097 L 119.855429 46.66781 L 120.035482 46.722608 L 120.21945 46.781322 L 120.399503 46.83612 L 120.583471 46.890919 L 120.763524 46.945718 L 120.947492 47.000517 L 121.127545 47.051402 L 121.307599 47.106201 L 121.491566 47.157085 L 121.67162 47.204056 L 121.855587 47.25494 L 122.035641 47.301911 L 122.219608 47.348881 L 122.399662 3.627219 L 122.583629 3.584163 L 122.763683 3.541107 L 122.94765 3.49805 L 123.127704 3.454994 L 123.311671 3.411938 L 123.671778 3.333654 L 123.855746 3.294512 L 124.035799 3.259284 L 124.219767 3.220142 L 124.39982 3.184914 L 124.583788 3.149686 L 124.763841 3.118373 L 124.947809 3.083145 L 125.127862 3.051831 L 125.31183 3.020517 L 125.491883 2.993118 L 125.675851 2.961804 L 125.855904 2.934405 L 126.039872 2.907006 L 126.219925 2.88352 L 126.399979 2.856121 L 126.583946 2.832636 L 126.764 2.80915 L 126.947967 2.789579 L 127.128021 2.766094 L 127.311988 2.746523 L 127.492042 2.726952 L 127.676009 2.711295 L 127.856063 2.691724 L 128.04003 2.676067 L 128.220084 2.660411 L 128.404051 2.648668 L 128.584105 2.633011 L 128.764158 2.621269 L 128.948126 2.609526 L 129.128179 2.601698 L 129.312147 2.589955 L 129.4922 2.582127 L 129.676168 2.574298 L 129.856221 2.570384 L 130.040189 2.562556 L 130.220242 2.558641 L 130.40421 2.554727 L 130.584263 2.554727 L 130.768231 2.550813 L 130.948284 2.550813 L 131.132252 48.472258 L 131.312305 48.468344 L 131.492358 48.468344 L 131.676326 48.464429 L 131.856379 48.460515 L 132.040347 48.452687 L 132.2204 48.448773 L 132.404368 48.440944 L 132.584421 48.433116 L 132.768389 48.421373 L 132.948442 48.413545 L 133.13241 48.401802 L 133.312463 48.39006 L 133.496431 48.374403 L 133.676484 48.36266 L 133.860452 48.347003 L 134.040505 48.331346 L 134.220559 48.311775 L 134.404526 48.296119 L 134.58458 48.276548 L 134.768547 48.256977 L 134.948601 48.233491 L 135.132568 48.21392 L 135.312622 48.190435 L 135.496589 48.16695 L 135.676643 48.13955 L 135.86061 48.116065 L 136.040664 48.088666 L 136.224631 48.061266 L 136.404685 48.029953 L 136.584738 48.002553 L 136.768706 47.97124 L 136.948759 47.939926 L 137.132727 47.904698 L 137.31278 47.873385 L 137.496748 47.838157 L 137.676801 47.802929 L 137.860769 47.763787 L 138.040822 47.728559 L 138.22479 47.689417 L 138.404843 47.650275 L 138.588811 47.611133 L 138.768864 47.568077 L 138.952832 47.52502 L 139.312939 47.438908 L 139.496906 47.395852 L 139.67696 47.348881 L 139.860927 3.72116 L 140.040981 3.76813 L 140.224948 3.819015 L 140.405002 3.8699 L 140.588969 3.91687 L 140.769023 3.971669 L 140.95299 4.022554 L 141.133044 4.077353 L 141.317011 4.132151 L 141.497065 4.18695 L 141.681032 4.241749 L 141.861086 4.300462 L 142.041139 4.355261 L 142.225107 4.413974 L 142.40516 4.476601 L 142.589128 4.535315 L 142.769181 4.597942 L 142.953149 4.660569 L 143.133202 4.723196 L 143.31717 4.789738 L 143.497223 4.852365 L 143.681191 4.918907 L 143.861244 4.985448 L 144.045212 5.051989 L 144.405318 5.192901 L 144.589286 5.263357 L 144.769339 5.333812 L 144.953307 5.404268 L 145.13336 5.478638 L 145.317328 5.553008 L 145.497381 5.627378 L 145.681349 5.701747 L 145.861402 5.780031 L 146.04537 5.858316 L 146.225423 5.932685 L 146.409391 6.014884 L 146.589444 6.093168 L 146.773412 6.175366 L 146.953465 6.25365 L 147.133519 6.335848 L 147.317486 6.421961 L 147.49754 6.504159 L 147.681507 6.590272 L 147.861561 6.676384 L 148.045528 6.762497 L 148.225582 6.848609 L 148.409549 6.934722 L 148.589603 43.998322 L 148.77357 43.908296 L 148.953624 43.818269 L 149.137591 43.728242 L 149.317645 43.634301 L 149.497698 43.544275 L 149.681666 43.450334 L 149.861719 43.356393 L 150.045687 43.258538 L 150.22574 43.164597 L 150.409708 43.066742 L 150.589761 42.972801 L 150.773729 42.874946 L 150.953782 42.773176 L 151.13775 42.675321 L 151.317803 42.573552 L 151.501771 42.471783 L 151.681824 42.373928 L 151.865792 42.268244 L 152.225899 42.064705 L 152.409866 41.959022 L 152.58992 41.853338 L 152.773887 41.747655 L 152.953941 41.641971 L 153.137908 41.532374 L 153.317962 41.42669 L 153.501929 41.317092 L 153.681983 41.207495 L 153.86595 41.097897 L 154.046004 40.988299 L 154.229971 40.874787 L 154.410025 40.761275 L 154.593992 40.651678 L 154.954099 40.424654 L 155.138067 40.307228 L 155.31812 40.193716 L 155.502088 40.07629 L 155.682141 39.962778 L 155.866109 39.845352 L 156.046162 39.727925 L 156.23013 39.606585 L 156.410183 39.489159 L 156.594151 39.367819 L 156.774204 39.250392 L 156.958172 39.129052 L 157.138225 39.007712 L 157.318278 12.136699 L 157.502246 12.261954 L 157.682299 12.383294 L 157.866267 12.508549 L 158.04632 12.629889 L 158.230288 12.755144 L 158.410341 12.880398 L 158.594309 13.005653 L 158.774362 13.130907 L 158.95833 13.260076 L 159.138383 13.38533 L 159.322351 13.514499 L 159.502404 13.643668 L 159.686372 13.772837 L 160.046479 14.031174 L 160.230446 14.160343 L 160.4105 14.293426 L 160.594467 14.422595 L 160.774521 14.555678 L 160.958488 14.68876 L 161.138542 14.821843 L 161.322509 14.954926 L 161.502563 15.088009 L 161.68653 15.221092 L 161.866584 15.358089 L 162.050551 15.491172 L 162.230605 15.62817 L 162.410658 15.761252 L 162.594626 15.89825 L 162.774679 16.035247 L 162.958647 16.172244 L 163.1387 16.309241 L 163.322668 16.446238 L 163.502721 16.58715 L 163.686689 16.724147 L 163.866742 16.865058 L 164.05071 17.002055 L 164.230763 17.142967 L 164.414731 17.283878 L 164.594784 17.424789 L 164.778752 17.565701 L 165.138859 17.847523 L 165.322826 17.988435 L 165.50288 18.129346 L 165.686847 18.274172 L 165.866901 18.415083 L 166.050868 32.463162 L 166.230922 32.322251 L 166.414889 32.177425 L 166.594943 32.0326 L 166.77891 31.887774 L 166.958964 31.742949 L 167.142931 31.598123 L 167.322985 31.453298 L 167.506952 31.308472 L 167.867059 31.018821 L 168.051027 30.870081 L 168.23108 30.725256 L 168.415048 30.58043 L 168.595101 30.43169 L 168.779069 30.286865 L 168.959122 30.138125 L 169.14309 29.989385 L 169.323143 29.84456 L 169.507111 29.69582 L 169.687164 29.54708 L 169.871132 29.39834 L 170.051185 29.253515 L 170.231238 29.104775 L 170.415206 28.956035 L 170.595259 28.807295 L 170.779227 28.658556 L 170.95928 28.509816 L 171.143248 28.361076 L 171.323301 28.208422 L 171.507269 28.059682 L 171.687322 27.910943 L 171.87129 27.762203 L 172.051343 27.613463 L 172.235311 27.464723 L 172.415364 27.312069 L 172.599332 27.16333 L 172.779385 27.01459 L 172.959439 26.861936 L 173.143406 26.713196 L 173.32346 26.564456 L 173.507427 26.411802 L 173.687481 26.263063 L 173.871448 26.114323 L 174.051502 25.961669 L 174.235469 25.812929 L 174.415523 25.660275 L 174.59949 25.511535 L 174.779544 25.660275 L 174.963511 25.812929 L 175.143565 25.961669 L 175.327532 26.114323 L 175.687639 26.411802 L 175.871607 26.564456 L 176.05166 26.713196 L 176.235628 26.861936 L 176.415681 27.01459 L 176.599649 27.16333 L 176.779702 27.312069 L 176.96367 27.464723 L 177.143723 27.613463 L 177.327691 27.762203 L 177.507744 27.910943 L 177.691712 28.059682 L 177.871765 28.208422 L 178.051819 28.361076 L 178.235786 28.509816 L 178.41584 28.658556 L 178.599807 28.807295 L 178.779861 28.956035 L 178.963828 29.104775 L 179.143882 29.253515 L 179.327849 29.39834 L 179.507903 29.54708 L 179.69187 29.69582 L 179.871924 29.84456 L 180.055891 29.989385 L 180.235945 30.138125 L 180.419912 30.286865 L 180.599966 30.43169 L 180.780019 30.58043 L 180.963987 30.725256 L 181.14404 30.870081 L 181.328008 31.018821 L 181.508061 31.163646 L 181.692029 31.308472 L 181.872082 31.453298 L 182.05605 31.598123 L 182.236103 31.742949 L 182.420071 31.887774 L 182.600124 32.0326 L 182.784092 32.177425 L 182.964145 32.322251 L 183.144198 32.463162 L 183.328166 32.607988 L 183.508219 18.274172 L 183.692187 18.129346 L 183.87224 17.988435 L 184.056208 17.847523 L 184.236261 17.706612 L 184.420229 17.565701 L 184.600282 17.424789 L 184.78425 17.283878 L 184.964303 17.142967 L 185.148271 17.002055 L 185.328324 16.865058 L 185.512292 16.724147 L 185.692345 16.58715 L 185.872399 16.446238 L 186.056366 16.309241 L 186.23642 16.172244 L 186.420387 16.035247 L 186.600441 15.89825 L 186.784408 15.761252 L 186.964462 15.62817 L 187.148429 15.491172 L 187.328483 15.358089 L 187.51245 15.221092 L 187.692504 15.088009 L 187.876471 14.954926 L 188.056525 14.821843 L 188.240492 14.68876 L 188.600599 14.422595 L 188.784567 14.293426 L 188.96462 14.160343 L 189.148588 14.031174 L 189.328641 13.902005 L 189.512609 13.772837 L 189.692662 13.643668 L 189.87663 13.514499 L 190.056683 13.38533 L 190.240651 13.260076 L 190.420704 13.130907 L 190.604672 13.005653 L 190.964779 12.755144 L 191.148746 12.629889 L 191.3288 12.508549 L 191.512767 12.383294 L 191.692821 12.261954 L 191.876788 12.136699 L 192.056842 12.015359 L 192.240809 39.129052 L 192.420863 39.250392 L 192.60483 39.367819 L 192.784884 39.489159 L 192.968851 39.606585 L 193.148905 39.727925 L 193.332872 39.845352 L 193.512926 39.962778 L 193.692979 40.07629 L 193.876947 40.193716 L 194.057 40.307228 L 194.240968 40.424654 L 194.421021 40.538166 L 194.604989 40.651678 L 194.785042 40.761275 L 194.96901 40.874787 L 195.149063 40.988299 L 195.333031 41.097897 L 195.513084 41.207495 L 195.697052 41.317092 L 195.877105 41.42669 L 196.057158 41.532374 L 196.241126 41.641971 L 196.421179 41.747655 L 196.605147 41.853338 L 196.7852 41.959022 L 196.969168 42.064705 L 197.149221 42.166475 L 197.333189 42.268244 L 197.513242 42.373928 L 197.69721 42.471783 L 197.877263 42.573552 L 198.061231 42.675321 L 198.241284 42.773176 L 198.425252 42.871031 L 198.605305 42.972801 L 198.785359 43.066742 L 198.969326 43.164597 L 199.14938 43.258538 L 199.333347 43.356393 L 199.513401 43.450334 L 199.697368 43.544275 L 199.877422 43.634301 L 200.061389 43.728242 L 200.241443 43.818269 L 200.42541 43.908296 L 200.605464 43.998322 L 200.789431 44.088349 L 200.969485 6.848609 L 201.153452 6.762497 L 201.513559 6.590272 L 201.697527 6.504159 L 201.87758 6.421961 L 202.061548 6.335848 L 202.241601 6.25365 L 202.425569 6.175366 L 202.605622 6.093168 L 202.78959 6.014884 L 202.969643 5.932685 L 203.153611 5.858316 L 203.333664 5.780031 L 203.517632 5.701747 L 203.877739 5.553008 L 204.061706 5.478638 L 204.24176 5.404268 L 204.425727 5.333812 L 204.605781 5.263357 L 204.789748 5.192901 L 204.969802 5.122445 L 205.153769 5.051989 L 205.333823 4.985448 L 205.51779 4.918907 L 205.697844 4.852365 L 205.881811 4.789738 L 206.061865 4.723196 L 206.245832 4.660569 L 206.605939 4.535315 L 206.789907 4.476601 L 206.96996 4.413974 L 207.153928 4.355261 L 207.333981 4.300462 L 207.517949 4.241749 L 207.698002 4.18695 L 207.88197 4.132151 L 208.062023 4.077353 L 208.245991 4.022554 L 208.426044 3.971669 L 208.610012 3.91687 L 208.790065 3.8699 L 208.974033 3.819015 L 209.154086 3.76813 L 209.334139 3.72116 L 209.518107 3.67419 L 209.69816 47.395852 L 209.882128 47.438908 L 210.062181 47.481964 L 210.246149 47.52502 L 210.426202 47.568077 L 210.61017 47.611133 L 210.790223 47.650275 L 210.974191 47.689417 L 211.154244 47.728559 L 211.338212 47.763787 L 211.518265 47.802929 L 211.698319 47.838157 L 211.882286 47.873385 L 212.06234 47.904698 L 212.246307 47.939926 L 212.426361 47.97124 L 212.610328 48.002553 L 212.790382 48.029953 L 212.974349 48.061266 L 213.154403 48.088666 L 213.33837 48.116065 L 213.518424 48.13955 L 213.702391 48.16695 L 213.882445 48.190435 L 214.066412 48.21392 L 214.246466 48.233491 L 214.426519 48.256977 L 214.610487 48.276548 L 214.79054 48.296119 L 214.974508 48.311775 L 215.154561 48.331346 L 215.338529 48.347003 L 215.518582 48.36266 L 215.70255 48.374403 L 215.882603 48.39006 L 216.066571 48.401802 L 216.246624 48.413545 L 216.430592 48.421373 L 216.610645 48.433116 L 216.790699 48.440944 L 216.974666 48.448773 L 217.15472 48.452687 L 217.338687 48.460515 L 217.518741 48.464429 L 217.702708 48.468344 L 217.882762 48.468344 L 218.066729 48.472258 L 218.246783 48.472258 " transform="matrix(0.997968, 0, 0, -0.997968, 21.395949, 340.412817)"/>
</g>
<path fill="none" stroke-width="0.3985" stroke-linecap="butt" stroke-linejoin="miter" stroke="rgb(0%, 0%, 0%)" stroke-opacity="1" stroke-miterlimit="10" d="M -0.00142102 25.511535 L 214.770969 25.511535 " transform="matrix(0.997968, 0, 0, -0.997968, 21.395949, 340.412817)"/>
<path fill-rule="nonzero" fill="rgb(0%, 0%, 0%)" fill-opacity="1" stroke-width="0.3985" stroke-linecap="butt" stroke-linejoin="miter" stroke="rgb(0%, 0%, 0%)" stroke-opacity="1" stroke-miterlimit="10" d="M 3.17158 -0.000414628 L 0.200698 1.764892 L 0.200698 -1.761807 Z M 3.17158 -0.000414628 " transform="matrix(0.997968, 0, 0, -0.997968, 235.631741, 314.952711)"/>
<g clip-path="url(#clip-8)">
<path fill="none" stroke-width="0.3985" stroke-linecap="butt" stroke-linejoin="miter" stroke="rgb(0%, 0%, 0%)" stroke-opacity="1" stroke-miterlimit="10" d="M -0.00142102 -0.00124828 L -0.00142102 47.55242 " transform="matrix(0.997968, 0, 0, -0.997968, 21.395949, 340.412817)"/>
</g>
<path fill-rule="nonzero" fill="rgb(0%, 0%, 0%)" fill-opacity="1" stroke-width="0.3985" stroke-linecap="butt" stroke-linejoin="miter" stroke="rgb(0%, 0%, 0%)" stroke-opacity="1" stroke-miterlimit="10" d="M 3.17314 0.00142102 L 0.198345 1.762813 L 0.198345 -1.763885 Z M 3.17314 0.00142102 " transform="matrix(0, -0.997968, -0.997968, 0, 21.395949, 293.057317)"/>
<g fill="rgb(0%, 0%, 0%)" fill-opacity="1">
<use xlink:href="#glyph-3-0" x="237.838208" y="323.153961"/>
</g>
<g fill="rgb(0%, 0%, 0%)" fill-opacity="1">
<use xlink:href="#glyph-3-1" x="9.741681" y="291.412596"/>
</g>
<g fill="rgb(0%, 0%, 0%)" fill-opacity="1">
<use xlink:href="#glyph-4-2" x="14.501988" y="293.291769"/>
</g>
</svg>
